<svg xmlns="http://www.w3.org/2000/svg" viewBox="0 0 100 100"><path fill="#0868ac" d="M5.979 30.509c-8.335 11.98-7.298 27.566-.93 40.295.15.305.31.605.466.906.1.19.194.386.297.573.06.113.125.223.186.33.109.203.22.396.332.593.198.35.4.696.608 1.043.115.19.228.38.347.571.23.371.465.737.705 1.104.1.156.198.312.3.463.333.496.672.99 1.022 1.475.009.013.018.027.03.04.054.077.115.153.172.231a48.248 48.248 0 0 0 1.281 1.685 67.759 67.759 0 0 0 1.19 1.45c.391.461.79.92 1.198 1.37l.024.024c.017.02.032.031.047.05a60.166 60.166 0 0 0 1.609 1.678c.32.322.644.64.973.955.133.127.264.256.397.378.439.413.882.818 1.333 1.214l.021.017c.077.068.156.132.232.197.398.345.803.687 1.211 1.023.166.135.335.267.502.4.333.267.67.53 1.01.79l.539.41c.375.275.752.546 1.133.813.139.1.273.197.412.293.04.026.075.053.114.08.361.25.73.488 1.1.728.158.105.316.215.476.317.566.359 1.141.713 1.722 1.055l.476.268c.427.247.857.489 1.293.725.235.127.477.247.715.37.308.16.613.324.925.48.071.034.145.068.214.103.126.06.253.12.379.183.484.232.972.459 1.466.678l.31.14a52.48 52.48 0 0 0 2.126.874c.532.205 1.072.407 1.614.598l.203.07c.594.208 1.195.4 1.799.589.144.041.29.088.434.13.616.185 1.224.407 1.858.524 40.31 7.351 52.02-24.224 52.02-24.224-9.835 12.812-27.29 16.191-43.83 12.43-.626-.143-1.234-.338-1.845-.519a54.809 54.809 0 0 1-2.238-.718l-.244-.087a55.793 55.793 0 0 1-1.567-.581l-.44-.174a50.346 50.346 0 0 1-1.692-.703c-.114-.049-.224-.1-.338-.149a69.05 69.05 0 0 1-1.427-.664l-.412-.197c-.371-.181-.738-.374-1.104-.562-.245-.13-.494-.251-.737-.386a42.673 42.673 0 0 1-1.323-.742c-.148-.083-.298-.163-.447-.25a63.921 63.921 0 0 1-1.723-1.054c-.157-.1-.31-.207-.465-.31a50.095 50.095 0 0 1-1.226-.815c-.134-.091-.263-.188-.395-.278a45.892 45.892 0 0 1-1.673-1.226 77.213 77.213 0 0 1-1.512-1.192c-.44-.361-.875-.725-1.303-1.099l-.143-.12c-.464-.407-.92-.824-1.37-1.244a55.99 55.99 0 0 1-.385-.371 43.17 43.17 0 0 1-.984-.965c-.13-.13-.26-.256-.386-.386a51.82 51.82 0 0 1-1.207-1.276l-.06-.064a49.09 49.09 0 0 1-1.546-1.775 53.576 53.576 0 0 1-.88-1.089 27.092 27.092 0 0 1-.324-.403c-.347-.45-.686-.899-1.018-1.355-9.182-12.525-12.48-29.8-5.142-43.987"/><path fill="#0868ac" d="M31.852 20.416c-6.028 8.674-5.7 20.286-.999 29.46a38.378 38.378 0 0 0 2.666 4.45c.904 1.295 1.905 2.835 3.103 3.875a36.6 36.6 0 0 0 1.353 1.404c.117.12.237.234.356.352.45.437.909.866 1.382 1.284.02.014.037.034.056.049.005.005.01.007.014.012.523.46 1.064.901 1.614 1.336.122.092.242.19.366.285.55.423 1.112.838 1.688 1.233l.049.037c.254.176.513.34.77.508.123.08.24.166.365.241.411.264.828.52 1.251.767.06.036.119.068.177.102.365.21.735.418 1.106.618.13.073.261.137.393.205.257.134.513.271.774.4.04.02.08.037.117.054.531.261 1.067.513 1.614.752.117.052.238.098.357.147.437.185.879.366 1.323.537a64.456 64.456 0 0 0 1.781.63c.184.058.365.12.55.175.579.181 1.151.408 1.756.508 31.123 5.156 38.308-18.806 38.308-18.806-6.477 9.329-19.02 13.78-32.405 10.305a38.447 38.447 0 0 1-1.763-.51c-.178-.054-.353-.112-.53-.17a35.814 35.814 0 0 1-1.233-.426c-.186-.068-.373-.136-.556-.207a41.74 41.74 0 0 1-1.327-.535c-.12-.051-.24-.097-.358-.151a35.8 35.8 0 0 1-1.623-.755c-.275-.134-.545-.275-.815-.415l-.47-.241c-.346-.188-.69-.384-1.03-.581-.08-.047-.165-.09-.246-.14a40.52 40.52 0 0 1-1.248-.761c-.127-.08-.25-.169-.376-.252a46.186 46.186 0 0 1-.808-.534 43.295 43.295 0 0 1-1.682-1.23c-.127-.101-.254-.199-.379-.299-5.859-4.626-10.503-10.947-12.71-18.115-2.315-7.434-1.816-15.779 2.193-22.55"/><path fill="#0868ac" d="M53.613 12.875c-3.554 5.23-3.903 11.724-1.437 17.5 2.6 6.13 7.929 10.94 14.147 13.22.257.095.513.18.773.269.113.034.226.073.34.107.367.115.73.249 1.109.32 17.185 3.32 21.846-8.819 23.087-10.605-4.083 5.879-10.945 7.29-19.364 5.246a21.91 21.91 0 0 1-2.037-.629 24.899 24.899 0 0 1-2.42-1.005 25.021 25.021 0 0 1-4.24-2.588c-7.534-5.716-12.214-16.62-7.298-25.502"/></svg>