<svg xmlns="http://www.w3.org/2000/svg" viewBox="0 0 100 100"><path fill="#0868ac" d="M5.979 30.51c-8.337 11.98-7.3 27.565-.932 40.294.152.305.31.605.467.906.1.19.194.386.297.573.06.113.125.223.186.33.11.203.22.396.332.593.198.35.4.696.608 1.043.115.19.228.38.347.57.23.37.465.737.705 1.104.1.156.198.312.3.463.333.496.672.99 1.022 1.475.01.013.018.027.03.04.054.077.115.153.172.23.302.418.615.83.93 1.24l.35.446c.283.354.57.705.862 1.057.11.132.218.263.328.393.392.46.79.92 1.2 1.37l.023.024c.017.02.032.03.047.05.398.436.805.86 1.218 1.285.128.132.26.264.39.393.32.322.645.64.974.955.133.127.264.256.397.378.44.413.882.818 1.333 1.214l.02.017c.078.068.157.132.233.197.397.346.802.688 1.21 1.024.166.135.335.267.502.4.333.267.67.53 1.01.79l.54.41c.374.275.75.546 1.132.813.14.1.273.197.412.293.04.026.075.053.114.08.36.25.73.488 1.1.728.158.105.316.215.476.317.566.36 1.14.713 1.722 1.055l.476.268c.427.247.857.49 1.293.725.235.127.477.247.715.37.308.16.613.324.925.48.07.034.145.068.214.103.127.06.254.12.38.183.484.23.972.458 1.466.677l.31.14c.565.246 1.135.483 1.71.71.138.056.277.11.416.164.532.206 1.072.408 1.614.6.068.023.134.045.203.07.593.207 1.194.4 1.798.588.144.04.29.088.434.13.616.185 1.224.407 1.858.524 40.31 7.35 52.02-24.224 52.02-24.224-9.835 12.812-27.29 16.19-43.83 12.43-.626-.143-1.234-.338-1.845-.52-.155-.045-.308-.09-.46-.138-.597-.183-1.19-.376-1.778-.578-.08-.03-.162-.06-.244-.088-.527-.186-1.05-.38-1.567-.58-.147-.06-.293-.116-.44-.175-.57-.225-1.134-.46-1.692-.704l-.338-.15c-.48-.216-.954-.436-1.427-.663l-.413-.197c-.37-.18-.738-.374-1.104-.562-.245-.13-.494-.25-.737-.386-.447-.24-.886-.488-1.323-.742-.148-.083-.298-.163-.447-.25-.58-.34-1.155-.695-1.723-1.054-.157-.1-.31-.207-.465-.31-.412-.266-.822-.537-1.226-.815-.134-.09-.263-.188-.395-.278-.39-.277-.776-.556-1.16-.84-.173-.128-.344-.258-.513-.387-.35-.27-.7-.54-1.046-.818l-.467-.374c-.438-.36-.873-.724-1.3-1.098-.046-.04-.095-.078-.144-.12-.464-.407-.92-.824-1.37-1.244l-.385-.37c-.333-.32-.66-.64-.983-.966-.13-.13-.26-.256-.386-.386-.41-.42-.812-.844-1.206-1.276l-.06-.064c-.418-.456-.825-.923-1.225-1.394l-.322-.38c-.297-.36-.593-.723-.88-1.09-.11-.132-.217-.267-.324-.403-.347-.45-.686-.9-1.018-1.356-9.182-12.525-12.48-29.8-5.142-43.987"/><path fill="#0868ac" d="M31.852 20.416c-6.028 8.674-5.7 20.286-1 29.46.79 1.538 1.676 3.03 2.667 4.45.903 1.295 1.904 2.835 3.102 3.875.435.48.89.946 1.353 1.405.117.12.237.234.356.352.452.437.91.866 1.383 1.284.02.015.037.035.056.05.004.005.01.007.013.012.523.46 1.064.9 1.614 1.336.122.092.242.19.366.285.55.423 1.112.838 1.688 1.233l.05.037c.254.176.513.34.77.508.123.08.24.167.365.242.41.264.828.52 1.25.767.06.035.12.067.178.1.365.21.735.42 1.106.62.13.072.26.136.392.204.257.134.513.27.774.4.04.02.08.037.117.054.53.26 1.067.513 1.614.752.117.052.238.098.357.147.437.185.88.366 1.323.537.188.07.378.14.566.207.403.15.807.287 1.215.424.184.058.365.12.55.175.58.18 1.15.407 1.756.507C86.957 74.993 94.142 51.03 94.142 51.03c-6.477 9.33-19.02 13.78-32.405 10.306-.595-.156-1.18-.327-1.763-.51-.178-.054-.353-.112-.53-.17-.414-.135-.825-.277-1.233-.426-.185-.068-.372-.136-.555-.207-.447-.17-.89-.35-1.327-.535-.12-.05-.24-.097-.358-.15-.55-.24-1.09-.492-1.623-.756-.275-.134-.545-.275-.815-.415l-.47-.24c-.346-.19-.69-.385-1.03-.582-.08-.047-.165-.09-.246-.14-.422-.246-.837-.5-1.248-.76-.127-.082-.25-.17-.376-.253-.27-.176-.542-.354-.808-.534-.574-.396-1.132-.81-1.682-1.23l-.38-.3c-5.858-4.625-10.502-10.946-12.71-18.114-2.314-7.434-1.815-15.78 2.194-22.55"/><path fill="#0868ac" d="M53.613 12.875c-3.554 5.23-3.903 11.724-1.437 17.5 2.6 6.13 7.93 10.94 14.147 13.22.257.095.513.18.773.27.113.033.226.072.34.106.367.116.73.25 1.11.32C85.73 47.61 90.39 35.473 91.63 33.687c-4.083 5.88-10.945 7.29-19.364 5.246-.665-.162-1.396-.402-2.037-.63-.82-.292-1.63-.626-2.418-1.004-1.495-.718-2.92-1.59-4.24-2.588-7.535-5.716-12.215-16.62-7.3-25.502"/></svg>