<?xml version="1.0" standalone="no"?>
<!DOCTYPE svg PUBLIC "-//W3C//DTD SVG 1.1//EN" "http://www.w3.org/Graphics/SVG/1.1/DTD/svg11.dtd" >
<svg xmlns="http://www.w3.org/2000/svg">
<metadata></metadata>
<defs>
<font id="entyporegular" horiz-adv-x="1228" >
<font-face units-per-em="2048" ascent="1536" descent="-512" />
<missing-glyph horiz-adv-x="500" />
<glyph unicode="&#xd;" horiz-adv-x="681" />
<glyph unicode="&#x2000;" horiz-adv-x="513" />
<glyph unicode="&#x2001;" horiz-adv-x="1026" />
<glyph unicode="&#x2002;" horiz-adv-x="513" />
<glyph unicode="&#x2003;" horiz-adv-x="1026" />
<glyph unicode="&#x2004;" horiz-adv-x="342" />
<glyph unicode="&#x2005;" horiz-adv-x="256" />
<glyph unicode="&#x2006;" horiz-adv-x="171" />
<glyph unicode="&#x2007;" horiz-adv-x="171" />
<glyph unicode="&#x2008;" horiz-adv-x="128" />
<glyph unicode="&#x2009;" horiz-adv-x="205" />
<glyph unicode="&#x200a;" horiz-adv-x="57" />
<glyph unicode="&#x2016;" horiz-adv-x="747" d="M102 221v584q0 65 92.5 65t92.5 -65v-584q0 -68 -92.5 -67.5t-92.5 67.5zM461 221v584q0 65 92 65t92 -65v-584q0 -68 -92 -67.5t-92 67.5z" />
<glyph unicode="&#x202f;" horiz-adv-x="205" />
<glyph unicode="&#x205f;" horiz-adv-x="256" />
<glyph unicode="&#x2139;" horiz-adv-x="675" d="M102 487q92 80 193.5 129.5t155.5 49.5q80 0 36 -166l-71 -273q-16 -66 6 -65q45 0 121 61l30 -41q-86 -88 -179 -135t-142 -47q-102 0 -55 182l61 260q14 57 0 58q-12 0 -55 -18.5t-74 -39.5zM328 897q0 47 36 87t99 40q49 0 75.5 -27.5t26.5 -70.5q0 -51 -40 -90 t-97 -39q-49 0 -75.5 26.5t-24.5 73.5z" />
<glyph unicode="&#x2190;" horiz-adv-x="1208" d="M102 512l246 256v-164h758v-182h-758v-166z" />
<glyph unicode="&#x2191;" horiz-adv-x="716" d="M102 770l256 244l256 -244h-165v-760h-181v760h-166z" />
<glyph unicode="&#x2192;" horiz-adv-x="1208" d="M102 422v182h760v164l244 -256l-244 -256v166h-760z" />
<glyph unicode="&#x2193;" horiz-adv-x="716" d="M102 256h166v758h181v-758h165l-256 -246z" />
<glyph unicode="&#x21b0;" horiz-adv-x="1075" d="M102 584l205 174v-103h563q41 0 72 -29.5t31 -72.5v-287h-144v246h-522v-92z" />
<glyph unicode="&#x21b3;" horiz-adv-x="966" d="M102 461v358h144v-317h372v153l246 -225l-246 -225v153h-413q-43 0 -73 31t-30 72z" />
<glyph unicode="&#x21c6;" d="M102 688l205 174v-102h512v-144h-512v-92zM410 258v143h512v103l204 -174l-204 -164v92h-512z" />
<glyph unicode="&#x221e;" d="M102 512q0 117 61.5 171t149.5 54q80 0 161 -40t140 -107q59 68 141.5 107.5t162.5 39.5q86 0 147 -54t61 -171q0 -115 -61 -170t-147 -55q-80 0 -161 41t-143 108q-59 -68 -140 -108.5t-161 -40.5q-88 0 -149.5 55t-61.5 170zM196 512q0 -135 117 -135q61 0 130 38 t116 97q-47 59 -114.5 97t-131.5 38q-117 0 -117 -135zM672 512q45 -59 114 -97t132 -38q117 0 116.5 135t-116.5 135q-63 0 -132 -38t-114 -97z" />
<glyph unicode="&#x2295;" horiz-adv-x="1064" d="M102 512q0 178 126 304t304.5 126t304.5 -126t126 -304t-126 -304t-304.5 -126t-304.5 126t-126 304zM274 461h207v-207h105v207h205v104h-205v207h-105v-207h-207v-104z" />
<glyph unicode="&#x2296;" horiz-adv-x="1064" d="M102 512q0 178 126 304t304.5 126t304.5 -126t126 -304t-126 -304t-304.5 -126t-304.5 126t-126 304zM274 461h517v104h-517v-104z" />
<glyph unicode="&#x229e;" horiz-adv-x="1024" d="M102 205v614q0 43 31 73t72 30h614q43 0 73 -30t30 -73v-614q0 -41 -30 -72t-73 -31h-614q-41 0 -72 31t-31 72zM256 461h205v-205h102v205h205v102h-205v205h-102v-205h-205v-102z" />
<glyph unicode="&#x229f;" horiz-adv-x="1024" d="M102 205v614q0 43 31 73t72 30h614q43 0 73 -30t30 -73v-614q0 -41 -30 -72t-73 -31h-614q-41 0 -72 31t-31 72zM256 461h512v102h-512v-102z" />
<glyph unicode="&#x2302;" horiz-adv-x="1128" d="M103 470q-5 11 12 28l409 411q16 16 39 16.5t39 -16.5l410 -411q16 -16 11 -27.5t-28 -11.5h-86v-318q0 -14 -1 -21t-8 -13.5t-23 -6.5h-209v318h-209v-318h-199q-29 0 -36 10.5t-7 30.5v318h-86q-23 0 -28 11z" />
<glyph unicode="&#x2328;" d="M102 276v472q0 29 21.5 50t50.5 21h881q29 0 50 -21.5t21 -49.5v-472q0 -31 -21.5 -51t-49.5 -20h-881q-29 0 -50.5 20.5t-21.5 50.5zM205 307h102v103h-102v-103zM205 614h102v103h-102v-103zM256 461h102v102h-102v-102zM358 307h512v103h-512v-103zM358 614h103v103 h-103v-103zM410 461h102v102h-102v-102zM512 614h102v103h-102v-103zM563 461h103v102h-103v-102zM666 614h102v103h-102v-103zM717 461h102v102h-102v-102zM819 614h205v103h-205v-103zM870 461h103v102h-103v-102zM922 307h102v103h-102v-103z" />
<glyph unicode="&#x232b;" d="M115 485q-29 27 0 56l348 303q31 27 72 26h489q43 0 72.5 -29.5t29.5 -72.5v-512q0 -41 -29.5 -71.5t-72.5 -30.5h-489q-39 0 -72 28zM545 383l73 -76l132 131l131 -131l73 76l-131 129l131 131l-73 74l-131 -129l-132 129l-73 -74l131 -131z" />
<glyph unicode="&#x23e9;" horiz-adv-x="1105" d="M102 266v494q0 29 16.5 37t37.5 -6l368 -254q14 -10 15 -25q0 -14 -15 -23l-368 -253q-20 -14 -37 -6t-17 36zM555 266v494q0 29 15.5 37t37.5 -6l381 -254q14 -10 15 -25q0 -14 -15 -23l-381 -253q-23 -14 -38 -6t-15 36z" />
<glyph unicode="&#x23ea;" horiz-adv-x="1105" d="M102 512q0 14 15 25l383 254q20 14 36.5 5.5t16.5 -36.5v-494q0 -29 -16.5 -37t-36.5 7l-383 253q-15 9 -15 23zM567 512q0 14 15 25l368 254q20 14 37 5.5t17 -36.5v-494q0 -29 -16.5 -37t-37.5 7l-368 253q-15 9 -15 23z" />
<glyph unicode="&#x23ed;" horiz-adv-x="819" d="M102 287v452q0 27 14.5 36t37.5 -5l370 -233q14 -10 15 -25q0 -12 -15 -23l-370 -233q-23 -14 -37.5 -5t-14.5 36zM563 274v478q0 59 78 59q76 0 76 -59v-478q0 -59 -76 -59q-78 0 -78 59z" />
<glyph unicode="&#x23ee;" horiz-adv-x="819" d="M102 274v478q0 59 78 59q76 0 76 -59v-478q0 -59 -76 -59q-78 0 -78 59zM281 512q0 14 14 25l373 233q20 14 34.5 5t14.5 -36v-452q0 -27 -14.5 -36t-34.5 5l-373 233q-14 11 -14 23z" />
<glyph unicode="&#x23f3;" horiz-adv-x="778" d="M102 115v121q0 47 49.5 99t99.5 99t50 78t-50 79t-99.5 101t-49.5 99v120q0 33 89.5 73t198 40t197.5 -40t89 -73v-120q0 -45 -49 -98.5t-99.5 -101.5t-50.5 -79t50.5 -78t99.5 -99t49 -99v-121q0 -35 -88 -75t-198.5 -40t-199 40t-88.5 75zM162 842l4 -51q0 -33 92 -125 q6 -6 22.5 -21.5t23.5 -23t19.5 -19.5t17.5 -21.5t11 -20.5t9.5 -23.5t3.5 -24.5q0 -10 -1.5 -19.5t-6.5 -18.5t-8 -16t-11 -17.5t-12 -15.5t-15.5 -16.5t-16.5 -15.5t-18.5 -16t-17.5 -17q-92 -92 -92 -124v-68q8 4 67.5 23.5t94 44t34.5 59.5q0 31 27 31t27 -31 q0 -35 33.5 -59.5t96 -44t68.5 -23.5v68q0 31 -94 124q-4 4 -21.5 20.5t-22.5 22t-18.5 19.5t-18.5 22.5t-12 20.5t-9 23.5t-2 23.5q0 18 4 33.5t18.5 34t20.5 25.5t31.5 32t29.5 29q94 94 94 125l2 51q-102 -55 -227 -55.5t-227 55.5zM164 891q-4 -8 4 -14q94 -53 221 -54 q135 0 225 51q14 10 -16 31q-98 55 -207 56q-123 -1 -209 -56z" />
<glyph unicode="&#x23f4;" horiz-adv-x="430" d="M102 512q0 47 33 80t80 33t80 -33t33 -80q0 -45 -33 -79t-80 -34t-80 34t-33 79z" />
<glyph unicode="&#x23f5;" horiz-adv-x="788" d="M102 512q0 47 33 80t80 33t80 -33t33 -80q0 -45 -33 -79t-80 -34t-80 33t-33 80zM461 512q0 47 32.5 80t80 33t80 -33t32.5 -80q0 -45 -34 -79t-79 -34q-47 0 -79.5 33t-32.5 80z" />
<glyph unicode="&#x23f6;" horiz-adv-x="1146" d="M102 512q0 47 33 80t80 33t80 -33t33 -80q0 -45 -33 -79t-80 -34t-80 34t-33 79zM461 512q0 47 32.5 80t80 33t80 -33t32.5 -80q0 -45 -34 -79t-79 -34t-78.5 34t-33.5 79zM819 512q0 47 33 80t80 33t79.5 -33t32.5 -80q0 -45 -32.5 -79t-79.5 -34t-80 34t-33 79z" />
<glyph unicode="&#x23f7;" horiz-adv-x="1122" d="M104.5 276.5q6.5 10.5 24.5 20.5l821 463q29 18 49.5 7t20.5 -46v-383q0 -35 -24.5 -58.5t-57.5 -23.5h-799q-23 0 -32 5t-2.5 15.5z" />
<glyph unicode="&#x25a0;" horiz-adv-x="819" d="M102 272v482q0 37 18.5 51t59.5 14h461q76 0 76 -65v-482q0 -68 -76 -67h-461q-78 0 -78 67z" />
<glyph unicode="&#x25b4;" horiz-adv-x="675" d="M102 307l236 410l235 -410h-471z" />
<glyph unicode="&#x25b6;" horiz-adv-x="716" d="M102 250v526q0 31 17.5 41t42.5 -6l438 -272q14 -10 14 -27q0 -14 -14 -25l-438 -272q-25 -16 -42.5 -6t-17.5 41z" />
<glyph unicode="&#x25b8;" horiz-adv-x="614" d="M102 276v472l410 -236z" />
<glyph unicode="&#x25be;" horiz-adv-x="675" d="M102 717h471l-235 -410z" />
<glyph unicode="&#x25c2;" horiz-adv-x="614" d="M102 512l410 236v-472z" />
<glyph unicode="&#x25cf;" horiz-adv-x="921" d="M102 512q0 150 104.5 254t254 104t254 -104t104.5 -254q0 -147 -104.5 -252.5t-254 -105.5t-254 105.5t-104.5 252.5z" />
<glyph unicode="&#x25d1;" d="M102 512q0 16 15.5 28.5t36.5 12.5h51q20 0 35.5 -12.5t15.5 -28.5q0 -41 -51 -41h-51q-51 0 -52 41zM221.5 863q-2.5 20 9.5 32q10 12 30 10t34 -16l37 -37q37 -37 6 -66q-10 -10 -29.5 -8t-34.5 17q-31 31 -36 34q-14 14 -16.5 34zM231 127q-31 29 7 66q5 3 36 34 q14 16 34 18.5t30 -9.5q12 -12 10 -32t-16 -34l-37 -37q-14 -14 -33.5 -16t-30.5 10zM334 512q0 117 82 199t198.5 82t199.5 -82t83 -199q0 -119 -83 -201t-199.5 -82t-198.5 82t-82 201zM410 512q0 -86 61.5 -145.5t149.5 -59.5v410q-88 0 -149.5 -60.5t-61.5 -144.5z M573 51v51q0 20 12.5 36t29 16t28.5 -15.5t12 -36.5v-51q0 -20 -12 -35.5t-28.5 -15.5t-29 15.5t-12.5 35.5zM573 922v51q0 20 12.5 35.5t29 15.5t28.5 -15.5t12 -35.5v-51q0 -20 -12 -36t-28.5 -16t-29 15.5t-12.5 36.5zM891 235.5q29 28.5 65 -8.5l35 -34q37 -37 8.5 -66 t-65.5 6q-31 31 -35 37q-37 37 -8 65.5zM891 786q-29 29 8 66q4 6 35 37q37 35 65.5 6t-8.5 -66l-35 -34q-35 -35 -65 -9zM975 512q0 16 15.5 28.5t35.5 12.5h49q20 0 35.5 -12.5t15.5 -28.5q0 -41 -51 -41h-49q-51 0 -51 41z" />
<glyph unicode="&#x25f4;" horiz-adv-x="1064" d="M102 459h435q20 0 35.5 14t15.5 37v432q160 -20 267.5 -142t107.5 -286q0 -178 -126 -305t-307 -127q-164 0 -284.5 107.5t-143.5 269.5zM102 565q18 150 124 255.5t253 121.5v-377h-377z" />
<glyph unicode="&#x25fc;" horiz-adv-x="1024" d="M0 0z" />
<glyph unicode="&#x2601;" d="M102 360q0 76 54.5 129.5t132.5 53.5q2 0 10 -1t10 -1q-2 12 -2 39q0 111 80 188.5t193 77.5q92 0 163.5 -53.5t96.5 -137.5q29 4 41 4q102 0 173.5 -69.5t71.5 -170t-71.5 -170t-173.5 -69.5h-592q-76 0 -131.5 53.5t-55.5 126.5z" />
<glyph unicode="&#x2605;" horiz-adv-x="1105" d="M102 618h328l123 345l123 -345h328l-269 -200l96 -357l-278 213l-279 -213l97 357z" />
<glyph unicode="&#x2606;" horiz-adv-x="1105" d="M102 618h328l123 345l123 -345h328l-269 -200l96 -357l-278 213l-279 -213l97 357zM317 547l146 -117l-64 -182l154 127l154 -127l-64 182l148 117l-181 -4l-57 207l-55 -207z" />
<glyph unicode="&#x2615;" horiz-adv-x="905" d="M104 801q-4 29 37 58.5t124.5 51t187.5 21.5q156 0 255 -42t93 -89l-74 -608q-2 -14 -35 -37t-99.5 -43.5t-140 -20.5t-139 20.5t-99.5 43t-36 37.5zM178 790.5q0 -12.5 34 -31t100.5 -33.5t140 -15t140 15t100.5 33.5t34 31t-34 30t-100.5 32.5t-140 15t-140 -15 t-100.5 -32.5t-34 -30z" />
<glyph unicode="&#x2630;" horiz-adv-x="921" d="M102 307.5q0 20.5 14.5 35.5t37.5 15h614q23 0 37 -15t14 -35.5t-15.5 -36t-35.5 -15.5h-614q-20 0 -36 15.5t-16 36zM102 512q0 20 14.5 35.5t37.5 15.5h614q23 0 37 -15.5t14 -35.5t-15.5 -35.5t-35.5 -15.5h-614q-20 0 -36 15.5t-16 35.5zM102 716.5q0 20.5 14.5 36 t37.5 15.5h614q23 0 37 -15.5t14 -36t-15.5 -35.5t-35.5 -15h-614q-20 0 -36 15t-16 35.5z" />
<glyph unicode="&#x263d;" horiz-adv-x="1046" d="M102 322q127 -72 277.5 -52.5t259.5 128t128 258t-54 276.5q53 -27 98 -74q131 -131 131 -316.5t-131 -316.5t-317.5 -131t-317.5 131q-41 41 -74 97z" />
<glyph unicode="&#x2661;" horiz-adv-x="1089" d="M104 651.5q0 93.5 72 159.5q66 59 156 59t153 -59l60 -53l57 53q66 59 155.5 59t155.5 -59q72 -66 72 -160t-72 -159l-368 -338l-369 338q-72 66 -72 159.5zM186 651q0 -68 45 -106l314 -293l313 293q43 41 43 106q0 68 -39 103q-39 39 -104 39q-53 0 -107 -50l-106 -94 l-109 94q-49 49 -104 50q-66 0 -107 -39q-39 -37 -39 -103z" />
<glyph unicode="&#x2665;" horiz-adv-x="1089" d="M104 654q0 94 72 159q63 59 154.5 59t156.5 -59l58 -53l59 53q63 59 153 59t156 -59q72 -66 72 -160t-72 -161l-368 -338l-369 338q-72 68 -72 162z" />
<glyph unicode="&#x266a;" horiz-adv-x="800" d="M110.5 116.5q-20.5 57.5 20.5 118t119 87.5q88 31 162 4v667h82q0 -43 47 -99t92 -102.5t62.5 -122t-40.5 -157.5q-20 -35 -26 -16q-2 6 0 16q10 18 6 57t-13.5 80t-44 75t-83.5 42v-549q2 -49 -38 -97t-108 -73q-76 -29 -146.5 -8.5t-91 78z" />
<glyph unicode="&#x266b;" horiz-adv-x="964" d="M111 94q-18 49 6 99.5t86 74.5q55 20 110 11v606l547 119v-721q2 -43 -30.5 -83t-88.5 -61q-66 -25 -112.5 -8.5t-63.5 66.5q-18 49 7.5 99t86.5 75q53 20 109 10v385l-362 -84v-502q0 -43 -33 -83t-88 -60q-66 -23 -112 -7.5t-62 64.5z" />
<glyph unicode="&#x268f;" horiz-adv-x="819" d="M102 287v92q0 82 82 82h92q82 0 82 -82v-92q0 -82 -82 -82h-92q-82 0 -82 82zM102 645v92q0 82 82 82h92q82 0 82 -82v-92q0 -82 -82 -82h-92q-82 0 -82 82zM461 287v92q0 82 82 82h92q82 0 82 -82v-92q0 -82 -82 -82h-92q-82 0 -82 82zM461 645v92q0 82 82 82h92 q82 0 82 -82v-92q0 -82 -82 -82h-92q-82 0 -82 82z" />
<glyph unicode="&#x2691;" horiz-adv-x="1128" d="M102 815l95 35q92 68 155.5 88t100 3t65.5 -52t63.5 -73t81 -63.5t132 -20.5t202.5 52q14 6 22.5 -1t0.5 -19q-98 -141 -168 -218t-113 -92.5t-74.5 -2t-61.5 38t-64.5 41t-95 -4t-142.5 -88.5l92 -360h-102z" />
<glyph unicode="&#x2692;" horiz-adv-x="1226" d="M106 662q-10 12 3 24q2 2 18 14.5t20 16.5q6 6 28 6t38 14q14 14 18.5 39t10.5 31q2 0 9 7t26.5 22.5t41.5 31.5q137 92 191 99q125 0 152 -2q12 0 -9 -9q-123 -53 -155 -77q-82 -57 -37 -117q35 -47 39 -49q8 -8 -2 -15q-2 -2 -39 -35.5t-39 -35.5q-14 -8 -19 -4 q-43 49 -72.5 61.5t-68.5 -12.5q-8 -8 -11 -22.5t-3 -26t-2 -11.5q-2 -2 -17.5 -15t-19.5 -17q-16 -14 -29 4zM242 113q-23 19 0 39l260 254l78 -89l-252 -247q-20 -20 -39 -4zM459 563q-8 8 0 21l73 63q13 8 21 -2l420 -487q18 -23 -2 -39l-49 -43q-23 -14 -39 4zM690 586 l70 71q25 25 32 54.5t6 66.5t5 60q12 57 143 114q12 6 18.5 -3t2.5 -15q-12 -12 -47 -82q-14 -10 -12.5 -35.5t40.5 -54.5q59 -41 99 22q6 12 26.5 42t22.5 34q4 10 13 9t11 -17q16 -106 -16 -170q-51 -90 -158 -64q-57 12 -102 -32l-84 -80z" />
<glyph unicode="&#x2699;" horiz-adv-x="1064" d="M102 377q84 53 84 135q0 74 -84 127q20 57 35 84q76 -18 139 45q55 57 35 139q43 23 86 35q47 -82 135.5 -82t135.5 82q43 -12 86 -35q-20 -80 34 -139q68 -63 140 -45q23 -43 35 -84q-82 -51 -82 -127q0 -74 82 -125q-12 -41 -35 -84q-72 18 -140 -45q-55 -59 -34 -139 q-41 -20 -86 -37q-47 84 -135.5 84t-135.5 -84q-45 16 -86 37q20 82 -35 139q-55 55 -139 35q-14 27 -35 84zM346 512q0 -78 54.5 -132t132 -54t132 54t54.5 132t-54.5 133t-132 55t-132 -55t-54.5 -133z" />
<glyph unicode="&#x26a0;" horiz-adv-x="1191" d="M109 129l456 801q8 18 30.5 18t31.5 -18l456 -801q10 -16 0 -35q-10 -16 -30 -16h-914q-18 0 -28 16q-12 18 -2 35zM541 180h112v103h-112v-103zM541 358h112v308h-112v-308z" />
<glyph unicode="&#x26a1;" horiz-adv-x="618" d="M104 537q-4 12 86.5 122.5t184.5 214t98 99.5q6 -4 -76 -190.5t-80 -190.5t97.5 -44t99.5 -59q4 -20 -178.5 -232t-190.5 -206q-4 4 36 96.5t81 186.5t39 100t-96 46t-101 57z" />
<glyph unicode="&#x26c8;" d="M102 360q0 76 54.5 129.5t132.5 53.5q2 0 10 -1t10 -1q-2 12 -2 39q0 111 80 188.5t193 77.5q92 0 163.5 -53.5t96.5 -137.5q29 4 41 4q102 0 173.5 -69.5t71.5 -170t-71.5 -170t-173.5 -69.5h-592q-76 0 -131.5 53.5t-55.5 126.5zM487 483q0 -23 31 -30l4 -2 q8 -4 39 -17l-53 -117l-2 -8q-2 -8 -2 -14q0 -10 8 -19q18 -10 35 11q102 102 137 151q14 16 14 31q0 20 -30 33h-4q-27 14 -39 16l51 119q6 0 6 20q0 14 -8 19q-16 10 -35 -8q-2 -2 -30.5 -33t-62.5 -68t-46 -53q-12 -18 -13 -31z" />
<glyph unicode="&#x2707;" d="M102 512q0 98 70 167t166 69q98 0 166.5 -69t68.5 -167q0 -74 -41 -133h164q-41 66 -41 133q0 98 70 167t166 69q98 0 166.5 -69t68.5 -167q0 -96 -68.5 -166t-166.5 -70h-553q-96 0 -166 70t-70 166zM205 512q0 -53 39 -93t94 -40t94 40t39 93q0 55 -39 94t-94 39 t-94 -39t-39 -94zM758 512q0 -53 39 -93t94 -40t94 40t39 93q0 55 -39 94t-94 39t-94 -39t-39 -94z" />
<glyph unicode="&#x2708;" d="M102 338l82 174l-82 174h103l114 -102h185l-127 409h102l230 -409h264h16t37 -4.5t47.5 -11.5t36.5 -21.5t16 -34.5q0 -33 -38.5 -50.5t-75.5 -19.5l-39 -2h-264l-230 -409h-102l127 409h-185l-114 -102h-103z" />
<glyph unicode="&#x2709;" horiz-adv-x="1126" d="M102 264v377q0 20 21 10l393 -205q18 -10 47 -10t47 10l394 205q20 10 20 -10v-377q0 -16 -17.5 -32.5t-33.5 -16.5h-819q-16 0 -34 16.5t-18 32.5zM104 795q2 14 27 14h866q39 0 21 -33q-8 -14 -25 -22q-14 -6 -196.5 -104.5t-186.5 -100.5q-16 -10 -47 -10 q-29 0 -47 10q-4 2 -186.5 100.5t-196.5 104.5q-33 18 -29 41z" />
<glyph unicode="&#x270e;" horiz-adv-x="1005" d="M102 113l52 245l297 295l258 258q55 13 129 -61q33 -33 48 -65.5t15 -49.5v-16l-258 -258l-297 -295zM166 260q29 -16 47 -35q25 -25 37 -49l82 19l24 24q-2 45 -53 96q-23 23 -46.5 36.5t-35.5 13.5l-14 2l-23 -25z" />
<glyph unicode="&#x2712;" horiz-adv-x="921" d="M121 594q10 -33 32.5 -80t45 -82t32.5 -31q8 4 0 85t-11 170t26 161q23 45 82 96.5t106 71.5q-25 -47 -34 -96t-4 -80t22 -33q12 0 86 123t108 125q47 4 117 -29.5t84 -66.5q12 -25 0 -81t-41 -85q-45 -45 -149.5 -63.5t-116.5 -24.5q-16 -10 12 -35q55 -49 180 -21 q-57 -82 -139 -116.5t-135 -38.5t-55 -10q-4 -25 50 -55.5t103 -14.5q-31 -57 -64.5 -86t-55 -36t-78 -11t-86.5 -8q-21 -66 -72 -230q-6 -20 -27 -8q-18 8 -16 35q4 102 51 231q-102 158 -53 324z" />
<glyph unicode="&#x2713;" horiz-adv-x="890" d="M105 477.5q4 28.5 26.5 47t52 14.5t47.5 -29l121 -158l303 486q16 25 44 30.5t55 -8.5q25 -16 31 -44t-9 -54l-358 -574q-20 -33 -58 -32l-2 -2q-35 0 -57 28l-184 242q-16 25 -12 53.5z" />
<glyph unicode="&#x2716;" horiz-adv-x="1064" d="M102 512q0 178 126 304t304.5 126t304.5 -126t126 -304t-126 -304t-304.5 -126t-304.5 126t-126 304zM287 356l90 -88l155 156l158 -156l88 88l-157 156l157 158l-88 88l-158 -156l-155 156l-90 -88l157 -158z" />
<glyph unicode="&#x274c;" horiz-adv-x="688" d="M104.5 308q-0.5 26 16.5 44l141 160l-141 162q-16 18 -16.5 43.5t16.5 44.5q18 16 43.5 16t44.5 -16l135 -156l135 156q18 16 44 16t44 -16q18 -18 18.5 -44t-18.5 -44l-141 -162l141 -160q18 -18 18.5 -43.5t-18.5 -44.5q-18 -16 -43.5 -16t-44.5 16l-135 156l-135 -156 q-18 -16 -44 -16t-44 16q-16 18 -16.5 44z" />
<glyph unicode="&#x274e;" horiz-adv-x="1024" d="M102 205v614q0 43 31 73t72 30h614q43 0 73 -30t30 -73v-614q0 -41 -30 -72t-73 -31h-614q-41 0 -72 31t-31 72zM266 356l90 -88l156 156l158 -156l88 88l-158 156l158 158l-88 88l-158 -156l-156 156l-90 -88l158 -158z" />
<glyph unicode="&#x2753;" horiz-adv-x="798" d="M102 692q6 166 117 238q72 43 170 43q133 -1 219 -62q88 -63 88 -188q0 -66 -43 -127q-12 -20 -90 -82l-47 -31q-41 -35 -49 -61q-6 -16 -8 -45q0 -14 -17 -15h-131q-16 0 -16 13q4 100 29 127q16 23 49 49.5t57 42.5l25 14q23 16 34 35q29 45 29 72q0 41 -26 80 q-29 37 -95 36q-70 0 -96 -45q-29 -43 -29 -94h-170zM278.5 160q2.5 47 33 74.5t75.5 25.5q45 0 75 -30.5t27 -75.5q-2 -47 -32.5 -75t-75.5 -26q-45 0 -75 30t-27.5 77z" />
<glyph unicode="&#x275e;" horiz-adv-x="985" d="M102 174v72q115 0 187 110q55 88 26 150q-16 37 -63 37q-61 0 -105.5 45t-44.5 108.5t44.5 108.5t105.5 45q150 0 188 -150q39 -143 -41 -309q-82 -172 -229 -209q-33 -8 -68 -8zM532 174v72q115 0 187 110q55 88 26 150q-16 37 -63 37q-61 0 -105.5 45t-44.5 108.5 t44.5 108.5t105.5 45q150 0 188 -150q39 -143 -41 -309q-82 -172 -229 -209q-33 -8 -68 -8z" />
<glyph unicode="&#x2795;" horiz-adv-x="798" d="M102 512q0 51 31 51h215v215q0 31 51.5 31t51.5 -31v-215h215q31 0 30.5 -51t-30.5 -51h-215v-215q0 -31 -51.5 -31t-51.5 31v215h-215q-31 0 -31 51z" />
<glyph unicode="&#x2796;" horiz-adv-x="798" d="M102 512q0 51 31 51h533q31 0 30.5 -51t-30.5 -51h-533q-31 0 -31 51z" />
<glyph unicode="&#x27a1;" horiz-adv-x="952" d="M102 371v284h359v195l389 -338l-389 -338v197h-359z" />
<glyph unicode="&#x27a2;" horiz-adv-x="1085" d="M102 518q453 252 713 377q20 10 49 25.5t40 20.5t25.5 9t24 1t17.5 -11t11 -16.5t-2 -22.5t-10 -26.5t-19.5 -40t-24.5 -50.5q-55 -115 -150.5 -293t-161.5 -298l-67 -121l-55 389zM565 555l29 -240l283 527z" />
<glyph unicode="&#x27a6;" horiz-adv-x="1126" d="M102 164q4 20 13.5 54t51.5 120t98.5 151.5t159.5 120t230 54.5v196l369 -330l-369 -342v224q-215 0 -340 -46.5t-213 -201.5z" />
<glyph unicode="&#x27f2;" horiz-adv-x="1167" d="M102 498h127q2 170 125 289.5t293 119.5q174 0 296 -122.5t122 -297t-122 -297t-296 -122.5q-145 0 -258 90l72 75q86 -61 186 -61q129 0 221.5 92t92.5 223t-92.5 223.5t-221.5 92.5q-127 0 -219 -89t-94 -216h145l-188 -209z" />
<glyph unicode="&#x27f3;" horiz-adv-x="1167" d="M102 512q0 174 123 297t295 123t294 -119t126 -289h125l-188 -211l-189 211h148q-4 127 -96.5 215t-219.5 88q-129 0 -221 -92t-92 -223q0 -129 92 -221t221 -92q106 0 187 61l71 -78q-113 -90 -258 -90q-172 0 -295 123t-123 297z" />
<glyph unicode="&#x2b05;" horiz-adv-x="952" d="M102 512l387 338v-195h361v-284h-361v-197z" />
<glyph unicode="&#x2b06;" horiz-adv-x="880" d="M102 498l338 389l338 -389h-196v-359h-283v359h-197z" />
<glyph unicode="&#x2b07;" horiz-adv-x="880" d="M102 528h197v359h283v-359h196l-338 -389z" />
<glyph unicode="&#xe003;" d="M102 307.5q0 20.5 14.5 35.5t37.5 15h307q23 0 37 -15t14 -35.5t-15.5 -36t-35.5 -15.5h-307q-20 0 -36 15.5t-16 36zM102 512q0 20 14.5 35.5t37.5 15.5h307q23 0 37 -15.5t14 -35.5t-15.5 -35.5t-35.5 -15.5h-307q-20 0 -36 15.5t-16 35.5zM102 716.5q0 20.5 14.5 36 t37.5 15.5h307q23 0 37 -15.5t14 -36t-15.5 -35.5t-35.5 -15h-307q-20 0 -36 15t-16 35.5zM620.5 512q0.5 51 30.5 51h168v174q0 31 51.5 31t51.5 -31v-174h174q31 0 30.5 -51t-30.5 -51h-174v-174q0 -31 -51.5 -31t-51.5 31v174h-168q-31 0 -30.5 51z" />
<glyph unicode="&#xe005;" horiz-adv-x="921" d="M102 307.5q0 20.5 14.5 35.5t37.5 15h51q20 0 35.5 -15t15.5 -35.5t-15.5 -36t-35.5 -15.5h-51q-20 0 -36 15.5t-16 36zM102 512q0 20 14.5 35.5t37.5 15.5h51q20 0 35.5 -15.5t15.5 -35.5t-15.5 -35.5t-35.5 -15.5h-51q-20 0 -36 15.5t-16 35.5zM102 716.5 q0 20.5 14.5 36t37.5 15.5h51q20 0 35.5 -15.5t15.5 -36t-15.5 -35.5t-35.5 -15h-51q-20 0 -36 15t-16 35.5zM358 307.5q0 20.5 15.5 35.5t36.5 15h358q23 0 37 -15t14 -35.5t-15.5 -36t-35.5 -15.5h-358q-20 0 -36 15.5t-16 36zM358 512q0 20 15.5 35.5t36.5 15.5h358 q23 0 37 -15.5t14 -35.5t-15.5 -35.5t-35.5 -15.5h-358q-20 0 -36 15.5t-16 35.5zM358 716.5q0 20.5 15.5 36t36.5 15.5h358q23 0 37 -15.5t14 -36t-15.5 -35.5t-35.5 -15h-358q-20 0 -36 15t-16 35.5z" />
<glyph unicode="&#xe4ad;" horiz-adv-x="952" d="M102 512l387 389v-194h361v-388h-361v-196z" />
<glyph unicode="&#xe4ae;" horiz-adv-x="952" d="M102 319v388h359v194l389 -389l-389 -389v196h-359z" />
<glyph unicode="&#xe4af;" horiz-adv-x="983" d="M102 498l390 389l389 -389h-197v-359h-385v359h-197z" />
<glyph unicode="&#xe4b0;" horiz-adv-x="983" d="M102 528h197v359h385v-359h197l-389 -389z" />
<glyph unicode="&#xe700;" d="M102 51v207q37 14 84 27q96 35 132 70.5t36 97.5q0 23 -23.5 49t-31.5 76q-2 12 -23.5 25t-25.5 63q0 16 5 26t9 13l4 4q-8 51 -12 90q-6 55 41 114.5t164 59.5t164 -59.5t43 -114.5l-15 -90q18 -8 19 -43q-2 -29 -9.5 -44.5t-14.5 -17.5t-14 -8t-9 -18q-10 -47 -34 -75 t-24 -50q0 -61 37 -97t133 -71q184 -66 185 -125v-109h-820zM717 461v102h153v154h103v-154h153v-102h-153v-154h-103v154h-153z" />
<glyph unicode="&#xe704;" horiz-adv-x="1150" d="M104 506q-4 195 133.5 335t332 142t333.5 -133t144 -330q2 -195 -134.5 -335t-330.5 -144q-195 -2 -335.5 134t-142.5 331zM391 618h113v5q0 27 16 55q16 25 55 24q41 0 54 -20q16 -20 16 -45q0 -18 -16 -41q-8 -12 -21 -21l-6 -4l-16.5 -11t-20.5 -15t-21.5 -17.5 t-17.5 -17.5q-14 -20 -18 -80v-8h110v4q0 12 5 29q6 20 28 37l29 18q47 35 57 51q27 35 27 80q0 80 -55 119q-53 39 -138 39q-66 0 -106 -27q-70 -43 -74 -149v-5zM498 297q0 -31 19.5 -50.5t47.5 -21.5h2q31 0 50.5 19.5t19.5 48.5q2 31 -17.5 50t-50.5 19h-2 q-29 0 -48 -18t-21 -47z" />
<glyph unicode="&#xe705;" horiz-adv-x="1150" d="M104 506q-4 195 133.5 335t332 142t333.5 -133t144 -330q2 -195 -134.5 -335t-330.5 -144q-195 -2 -335.5 134t-142.5 331zM410 508l16 -27q53 35 76 35q12 0 0 -35l-37 -155q-26 -107 35 -107q31 0 86 26.5t108 80.5l-18 24q-49 -37 -74 -37q-14 0 -4 39l43 164 q27 98 -23 98q-31 0 -91 -29.5t-117 -76.5zM532 752q-2 -29 15.5 -45.5t50.5 -16.5q39 0 62.5 22.5t23.5 55.5q0 59 -61 59q-43 0 -67 -24.5t-24 -50.5z" />
<glyph unicode="&#xe70a;" d="M102 512q0 14 20.5 46t64.5 73t101.5 79t144.5 63.5t181.5 25.5t181.5 -25.5t144 -63.5t101 -79t64.5 -73t20.5 -46t-20.5 -45t-64.5 -73t-101 -80t-144 -63.5t-181.5 -25.5t-181.5 25.5t-144.5 63.5t-101.5 80t-64.5 73t-20.5 45zM387 512q0 -90 66.5 -154.5t161 -64.5 t161 64.5t66.5 154.5q0 92 -66.5 156.5t-161 64.5t-161 -64.5t-66.5 -156.5zM502 512q0 47 32.5 79t79.5 32q14 0 10.5 -24t-12 -48.5t1.5 -38.5q8 -8 38 -2t51.5 11t25.5 -9q0 -45 -33.5 -77t-81 -32t-80 32t-32.5 77z" />
<glyph unicode="&#xe70c;" horiz-adv-x="1187" d="M103.5 369.5q2.5 21.5 21.5 33.5l475 336q27 18 55 19h162q31 0 49 -27l29 -41q172 133 117 293q-10 29 18 41q33 9 39 -20q37 -109 -8 -204t-131 -161l18 -25q16 -29 6 -55l-49 -162q-12 -31 -37 -47l-475 -336q-43 -31 -65 4l-215 312q-12 18 -9.5 39.5zM721 607 q-6 -34 14 -62q18 -27 52 -33t61 12q41 33 35 82l-33 -16q-8 -4 -12 -4q-18 0 -29 18q-12 31 16 41l25 14q-49 35 -94 0q-29 -18 -35 -52z" />
<glyph unicode="&#xe711;" d="M102 360q0 76 54.5 129.5t132.5 53.5q14 0 20 -2q-2 12 -2 39q0 111 80 188.5t193 77.5q92 0 163.5 -53.5t96.5 -137.5q29 4 41 4q102 0 173.5 -69.5t71.5 -170t-71.5 -170t-173.5 -69.5h-195v195h109l-181 235l-178 -235h107v-195h-254q-76 0 -131.5 53.5t-55.5 126.5z " />
<glyph unicode="&#xe712;" horiz-adv-x="1126" d="M102 530l371 330v-196q92 0 172 -28t134.5 -72t98.5 -97t70.5 -106.5t45 -97.5t24.5 -70l6 -29q-88 156 -213 202t-338 46v-224z" />
<glyph unicode="&#xe713;" d="M102 530l371 330v-137l-217 -193l217 -200v-142zM358 530l371 330v-196q106 0 186 -51.5t118 -125t61.5 -147.5t27.5 -125l4 -51q-88 158 -172 203t-225 45v-224z" />
<glyph unicode="&#xe714;" d="M102 512l328 293q31 31 62 0q16 -14 16 -32.5t-16 -31.5l-252 -229l252 -231q16 -12 16 -31t-16 -33q-31 -31 -62 0zM737 217q-33 33 0 64l254 231l-254 229q-33 31 0 64q31 31 64 0l325 -293l-325 -295q-33 -31 -64 0z" />
<glyph unicode="&#xe715;" d="M102 164v563q0 23 14.5 37t37.5 14h295q-33 -25 -61 -50.5t-40 -39.5l-10 -12h-133v-461h665v57l103 84v-192q0 -20 -15.5 -35.5t-35.5 -15.5h-768q-20 0 -36 15t-16 36zM375 344q0 8 1 22.5t9 57.5t22.5 81t45 85t71.5 81t109.5 57.5t152.5 23.5v159l340 -256l-340 -266 v182q-170 0 -247.5 -42t-163.5 -185z" />
<glyph unicode="&#xe716;" horiz-adv-x="1208" d="M102 395v178q0 23 18.5 42.5t39.5 19.5h891q20 0 37.5 -19.5t17.5 -42.5v-178q0 -23 -17.5 -42t-37.5 -19h-103l45 -256h-778l45 256h-100q-20 0 -39 19.5t-19 41.5zM147 715q4 10 13 14q2 0 50 17.5t95 33t60 15.5h45v153h389v-153h47q12 0 58 -15.5t94.5 -33 t50.5 -17.5q18 -8 12 -27q-4 -10 -21 -10h-870q-27 0 -23 23zM317 180h574l-72 332h-430z" />
<glyph unicode="&#xe717;" d="M102 616l181 203l178 -203h-103v-268h279l131 -143h-459q-43 0 -72.5 30.5t-29.5 71.5v309h-105zM461 819h461q41 0 71.5 -29.5t30.5 -72.5v-307h102l-178 -205l-180 205h104v266h-280z" />
<glyph unicode="&#xe718;" horiz-adv-x="1024" d="M102 410v358q0 43 31 72.5t72 29.5h614q43 0 73 -29.5t30 -72.5v-358q0 -41 -30 -72t-73 -31h-205v-153l-204 153h-205q-41 0 -72 31t-31 72z" />
<glyph unicode="&#xe720;" d="M102 307v307q0 43 31 73t72 30h194v-318h359q2 0 6 2h4v-94q0 -41 -29.5 -71.5t-72.5 -30.5h-256l-154 -154v154h-51q-41 0 -72 30.5t-31 71.5zM461 461v409q0 43 30.5 73t71.5 30h461q43 0 72.5 -30t29.5 -73v-307q0 -41 -29.5 -71.5t-72.5 -30.5h-51v-154l-154 154 h-358z" />
<glyph unicode="&#xe722;" d="M102 205v614q0 43 31 73t72 30h819q43 0 72.5 -30t29.5 -73v-614q0 -41 -29.5 -72t-72.5 -31h-819q-41 0 -72 31t-31 72zM205 205h819v614h-819v-614zM307 313v93h256v-93h-256zM307 467v92h256v-92h-256zM307 621v92h256v-92h-256zM666 313q0 72 6 72q86 23 86 68 q0 16 -28 57t-28 90q0 113 92.5 113t92.5 -113q0 -49 -29 -90t-29 -57q0 -20 21.5 -37t44.5 -23l23 -8l4 -72h-256z" />
<glyph unicode="&#xe723;" d="M102.5 641q-0.5 10 10.5 16l123 84q14 10 26 13q8 4 29 4h180v194q0 20 21 21h47q20 0 20 -21v-880q0 -20 -20 -21h-47q-20 0 -21 21v450h-180q-16 0 -29 6q-12 2 -26 13l-123 84q-10 6 -10.5 16zM590 860h350q18 0 28.5 -4t26.5 -12l121 -84q10 -6 10 -16.5t-10 -16.5 l-121 -84q-23 -12 -26 -12q-14 -6 -29 -6h-309z" />
<glyph unicode="&#xe724;" horiz-adv-x="716" d="M102 666q0 106 75 181t181.5 75t181 -75t74.5 -181q0 -109 -63.5 -249.5t-128.5 -228.5l-64 -86q-10 12 -27.5 36t-61.5 91.5t-77.5 133t-61.5 150.5t-28 153zM221 663.5q0 -57.5 40 -98.5t97.5 -41t98.5 41t41 98.5t-41 97.5t-98.5 40t-97.5 -40t-40 -97.5z" />
<glyph unicode="&#xe727;" d="M102 139v598q0 20 17 31l239 150q18 10 35 0l221 -140l224 140q16 10 32 0l240 -150q16 -10 16 -31v-598q0 -20 -16 -30q-8 -6 -16 -7q-8 0 -19 7l-221 139l-221 -139q-18 -10 -35 0l-223 139l-221 -139q-16 -10 -35 0q-16 10 -17 30zM170 201l172 106v518l-172 -106 v-518zM410 307l172 -106v518l-172 106v-518zM647 201l174 106v518l-174 -106v-518zM887 307l172 -106v518l-172 106v-518z" />
<glyph unicode="&#xe728;" horiz-adv-x="1191" d="M104 506q-4 205 138.5 350.5t347.5 147.5q203 2 348 -139.5t149 -344.5q2 -205 -139 -350t-346 -150q-203 -2 -349.5 140.5t-148.5 345.5zM209 508q2 -162 116.5 -273.5t276.5 -109.5q160 2 272.5 116.5t110.5 276.5t-117.5 273.5t-275.5 109.5q-162 -2 -273.5 -116.5 t-109.5 -276.5zM362 283q4 27 12.5 67.5t42.5 130.5t79 135.5t128 78t144 42.5l61 11q-4 -27 -12 -68t-42 -131t-79 -135q-43 -43 -127 -76t-145 -43zM524 516q0 -29 23 -51q20 -23 50 -23t50 23q53 53 90 190q-139 -37 -190 -90q-23 -20 -23 -49z" />
<glyph unicode="&#xe729;" horiz-adv-x="983" d="M102 791v10q0 35 65.5 72.5t162.5 56.5l43 49q23 27 71 27h95q53 0 71 -27l43 -49q96 -18 162 -56t66 -73v-10q0 -59 -115 -101.5t-274.5 -42.5t-274.5 42t-115 102zM154 623q125 -72 338 -72t337 72l-55 -498q-2 -14 -35.5 -36.5t-102.5 -44t-144.5 -21.5t-143 21.5 t-102.5 44t-37 36.5zM299 815h86l66 68h84l63 -68h86q-94 113 -106 129q-14 16 -33 17h-105q-23 0 -32 -17z" />
<glyph unicode="&#xe730;" horiz-adv-x="921" d="M102 154v716q0 43 31 73t72 30h512q43 0 72.5 -30t29.5 -73v-716q0 -41 -29.5 -72t-72.5 -31h-512q-41 0 -72 31t-31 72zM205 154h512v716h-512v-716z" />
<glyph unicode="&#xe731;" horiz-adv-x="921" d="M102 154v716q0 43 31 73t72 30h512q43 0 72.5 -30t29.5 -73v-716q0 -41 -29.5 -72t-72.5 -31h-512q-41 0 -72 31t-31 72zM246 268h430v90h-430v-90zM246 670h430v90h-430v-90zM248 469h428v92h-428v-92z" />
<glyph unicode="&#xe736;" horiz-adv-x="1230" d="M104 850q-10 37 29 49l465 125q16 4 30.5 -3t18.5 -24l68 -249l381 -103q39 -10 30 -47l-153 -569q-4 -16 -18.5 -23.5t-30.5 -3.5l-416 113q-16 4 -24.5 18t-4.5 29l25 94l-185 -49q-41 -10 -51 26zM186 840l148 -555l401 108l-147 553zM557 174l348 -94l135 504 l-305 84l78 -289q10 -35 -29 -47l-200 -53z" />
<glyph unicode="&#xe737;" d="M102 256v512q0 43 31 72.5t72 29.5h819q43 0 72.5 -29.5t29.5 -72.5v-512q0 -41 -29.5 -71.5t-72.5 -30.5h-819q-41 0 -72 30.5t-31 71.5zM205 256h819v512h-819v-512z" />
<glyph unicode="&#xe73a;" horiz-adv-x="983" d="M102 238q0 49 35 82.5t82 33.5t82 -33.5t35 -82.5q0 -47 -35 -81t-82 -34t-82 33.5t-35 81.5zM102 537v120q223 0 380 -156.5t157 -377.5h-121q0 170 -122 292t-294 122zM102 778v123q322 0 550.5 -228.5t228.5 -549.5h-121q0 272 -192.5 463.5t-465.5 191.5z" />
<glyph unicode="&#xe73c;" horiz-adv-x="1024" d="M102 512q0 63 45.5 108.5t108.5 45.5q55 0 94 -31l266 160q0 4 -1 12t-1 12q0 63 45.5 108.5t108.5 45.5t108.5 -44t45.5 -110q0 -63 -45.5 -108t-108.5 -45q-53 0 -92 32l-268 -159q2 -8 2 -27q0 -16 -2 -25l268 -159q37 30 92 30q63 0 108.5 -44t45.5 -109 q0 -63 -45.5 -108.5t-108.5 -45.5t-108.5 45t-45.5 109q0 6 1 14t1 12l-266 160q-43 -33 -94 -33q-63 0 -108.5 45.5t-45.5 108.5z" />
<glyph unicode="&#xe73d;" horiz-adv-x="1126" d="M102 870v82q0 20 21 21h160q20 0 20 -21v-88h721v-280q0 -23 -18 -27l-568 -162q-37 -10 -34.5 -23.5t45.5 -13.5h575v-77q0 -20 -20 -21h-134h-512h-24q-20 0 -21 21v77l-10 48l-100 464h-101zM256 154q0 41 30.5 71.5t71.5 30.5q43 0 73 -30.5t30 -71.5q0 -43 -30 -73 t-73 -30q-41 0 -71.5 30t-30.5 73zM768 154q0 41 30.5 71.5t71.5 30.5q43 0 73 -30.5t30 -71.5q0 -43 -30 -73t-73 -30q-41 0 -71.5 30t-30.5 73z" />
<glyph unicode="&#xe73e;" d="M102 512v123h121q41 127 148.5 207t242.5 80q168 0 291 -119q16 -18 16.5 -44t-16.5 -44q-18 -16 -43.5 -16.5t-44.5 16.5q-80 84 -203 84q-102 0 -179.5 -64t-100.5 -162q-14 -61 -68 -61h-164zM307.5 267q-0.5 26 18.5 42q16 18 41.5 18.5t44.5 -18.5q84 -84 202 -84 q102 0 180 64.5t101 161.5q13 61 68 61h163v-123h-120q-41 -127 -147.5 -207t-244.5 -80q-168 0 -288 121q-18 18 -18.5 44zM451 512q0 70 48 117t115.5 47t115.5 -47t48 -117q0 -68 -48 -116t-115.5 -48t-115.5 48t-48 116z" />
<glyph unicode="&#xe740;" horiz-adv-x="1126" d="M102 410v153h461v123l205 -199l-205 -200v123h-461zM360 154v102h101v-102h461v716h-461v-153h-101v153q0 43 30 73t71 30h461q43 0 72.5 -30t29.5 -73v-716q0 -41 -29.5 -72t-72.5 -31h-461q-41 0 -71 31t-30 72z" />
<glyph unicode="&#xe741;" horiz-adv-x="1126" d="M102 154v716q0 43 31 73t72 30h409q43 0 73 -30t30 -73v-153h-101v153h-411v-716h411v102h101v-102q0 -41 -30 -72t-73 -31h-409q-41 0 -72 31t-31 72zM360 410v153h461v123l203 -199l-203 -200v123h-461z" />
<glyph unicode="&#xe744;" horiz-adv-x="1015" d="M102 109v323l103 -125l149 156l103 -103l-156 -149l125 -102h-324zM559 668l156 149l-125 101h323v-324l-102 127l-149 -156z" />
<glyph unicode="&#xe746;" horiz-adv-x="1126" d="M102 154l160 149l-108 103h303v-304l-103 109l-149 -160zM672 621v301l102 -107l148 158l102 -103l-158 -147l107 -102h-301z" />
<glyph unicode="&#xe74c;" horiz-adv-x="1024" d="M102 205v307h103v-307h307v-103h-307q-41 0 -72 31t-31 72zM307 410v411q0 41 30 71t73 30h409q43 0 73 -30t30 -73v-409q0 -41 -30 -72t-73 -31h-409q-41 0 -72 31t-31 72zM410 410h409v409h-409v-409z" />
<glyph unicode="&#xe74d;" d="M102 256v614q0 41 31 72t72 31h819q43 0 72.5 -31t29.5 -72v-614q0 -43 -29.5 -72.5t-72.5 -29.5h-203v100h205v473h-821v-473h205v-100h-205q-41 0 -72 29.5t-31 72.5zM197 840q0 -16 11.5 -27.5t27.5 -11.5q39 0 38 39q0 16 -11 26.5t-27.5 10.5t-27.5 -11.5t-11 -25.5 zM299 840q0 -16 11.5 -27.5t27.5 -11.5q39 0 39 39q0 16 -11.5 26.5t-27.5 10.5t-27.5 -11.5t-11.5 -25.5zM365 358l247 246l248 -246h-153v-307h-189v307h-153zM410 807h616v63h-616v-63z" />
<glyph unicode="&#xe74e;" d="M102 205v614q0 41 31 72t72 31h819q43 0 72.5 -31t29.5 -72v-614q0 -43 -29.5 -73t-72.5 -30h-819q-41 0 -72 30t-31 73zM197 788q0 -16 11 -27t28 -11q39 0 38 38q0 16 -11 26.5t-27.5 10.5t-27.5 -11.5t-11 -25.5zM205 205h821v471h-821v-471zM299 788q0 -16 11.5 -27 t27.5 -11q39 0 39 38q0 16 -11.5 26.5t-27.5 10.5t-27.5 -11t-11.5 -26zM410 758h616v61h-616v-61z" />
<glyph unicode="&#xe74f;" horiz-adv-x="675" d="M102 375h471l-235 -375zM102 651l236 373l235 -373h-471z" />
<glyph unicode="&#xe758;" horiz-adv-x="1146" d="M102 512q0 195 138.5 333t333 138t332.5 -138t138 -333t-138 -333t-332.5 -138t-333 138t-138.5 333zM205 512q0 -152 108.5 -260.5t260 -108.5t260 108.5t108.5 260.5q0 154 -108.5 261.5t-260 107.5t-260 -107.5t-108.5 -261.5zM367 500h114v211h185v-211h114 l-207 -195z" />
<glyph unicode="&#xe759;" horiz-adv-x="1146" d="M102 512q0 197 138.5 334t333 137t332.5 -137t138 -334q0 -195 -138 -333t-332.5 -138t-333 138t-138.5 333zM205 512q0 -152 108.5 -260.5t260 -108.5t260 108.5t108.5 260.5q0 154 -108.5 261.5t-260 107.5t-260 -107.5t-108.5 -261.5zM367 512l194 209v-117h209v-184 h-209v-115z" />
<glyph unicode="&#xe75a;" horiz-adv-x="1146" d="M102 512q0 195 138.5 333t333 138t332.5 -138t138 -333t-138 -333t-332.5 -138t-333 138t-138.5 333zM205 512q0 -152 108.5 -260.5t259.5 -108.5q154 0 261.5 108.5t107.5 260.5q0 154 -107.5 261.5t-261.5 107.5q-152 0 -260 -107.5t-108 -261.5zM377 420v184h209v117 l194 -209l-194 -207v115h-209z" />
<glyph unicode="&#xe75b;" horiz-adv-x="1146" d="M102 512q0 197 138.5 334t333 137t332.5 -137t138 -334q0 -195 -138 -333t-332.5 -138t-333 138t-138.5 333zM205 512q0 -152 108.5 -260.5t259.5 -108.5q154 0 261.5 108.5t107.5 260.5q0 154 -107.5 261.5t-261.5 107.5q-152 0 -260 -107.5t-108 -261.5zM367 524 l206 197l207 -197h-114v-209h-185v209h-114z" />
<glyph unicode="&#xe75c;" horiz-adv-x="798" d="M102.5 627.5q-0.5 25.5 16.5 42.5q39 39 80 0l200 -193l201 193q41 39 80 0q16 -16 16 -42t-16 -42l-240 -230q-18 -18 -40.5 -18t-41.5 18l-239 230q-16 16 -16.5 41.5z" />
<glyph unicode="&#xe75d;" horiz-adv-x="552" d="M102 512q0 25 17 41q211 219 231 242q14 16 40 16t42 -16q39 -37 0 -82l-190 -201l190 -199q39 -45 0 -82q-16 -16 -40.5 -16t-41.5 16l-231 242q-16 16 -17 39z" />
<glyph unicode="&#xe75e;" horiz-adv-x="552" d="M121 231q-37 37 0 82l190 199l-190 201q-37 45 0 82q16 16 42 16t40 -16l231 -242q16 -16 17 -41q0 -23 -17 -39l-231 -242q-16 -16 -41 -16t-41 16z" />
<glyph unicode="&#xe75f;" horiz-adv-x="798" d="M102.5 398q-0.5 26 16.5 42l239 230q16 16 41 16t41 -16l240 -230q16 -16 16 -41.5t-16 -42.5q-39 -39 -80 0l-201 193l-200 -193q-41 -39 -80 0q-16 16 -16.5 42z" />
<glyph unicode="&#xe760;" horiz-adv-x="679" d="M115 586q-27 27 0 49q25 25 51 0l174 -160l176 160q23 27 49 0q27 -23 0 -49l-200 -197q-23 -23 -50 0z" />
<glyph unicode="&#xe761;" horiz-adv-x="475" d="M115 487q-25 25 0 52l196 198q23 27 49 0q27 -23 0 -49l-159 -176l159 -174q27 -27 0 -49q-27 -27 -49 0z" />
<glyph unicode="&#xe762;" horiz-adv-x="475" d="M115 289q-27 22 0 49l161 174l-161 176q-27 27 0 49q27 27 49 0l196 -198q25 -27 0 -52l-196 -198q-23 -27 -49 0z" />
<glyph unicode="&#xe763;" horiz-adv-x="679" d="M115 389q-25 25 0 51l200 195q27 27 50 0l200 -195q25 -27 0 -51q-25 -23 -51 0l-174 162l-174 -162q-27 -23 -51 0z" />
<glyph unicode="&#xe764;" horiz-adv-x="1089" d="M115 688q-27 27 0 49q24 25 51 0l379 -364l381 364q23 27 49 0q27 -23 0 -49l-406 -401q-23 -23 -49 0z" />
<glyph unicode="&#xe765;" horiz-adv-x="679" d="M115 487q-25 25 0 52l401 403q23 27 49 0q27 -23 0 -49l-366 -381l366 -379q27 -27 0 -49q-27 -27 -49 0z" />
<glyph unicode="&#xe766;" horiz-adv-x="679" d="M115 84q-27 22 0 49l366 379l-366 381q-27 27 0 49q27 27 49 0l401 -403q25 -27 0 -52l-401 -403q-23 -27 -49 0z" />
<glyph unicode="&#xe767;" horiz-adv-x="1089" d="M115 287q-25 25 0 51l405 399q27 27 49 0l406 -399q25 -27 0 -51q-26 -23 -49 0l-381 366l-379 -366q-27 -23 -51 0z" />
<glyph unicode="&#xe768;" d="M102 358v308q0 41 31 71.5t72 30.5h819q43 0 72.5 -30.5t29.5 -71.5v-52v-256q0 -43 -29.5 -72.5t-72.5 -29.5h-819q-41 0 -72 29.5t-31 72.5zM205 358h819v308h-819v-308z" />
<glyph unicode="&#xe769;" d="M102 358v308q0 41 31 71.5t72 30.5h819q43 0 72.5 -30.5t29.5 -71.5v-52v-256q0 -43 -29.5 -72.5t-72.5 -29.5h-819q-41 0 -72 29.5t-31 72.5zM205 358h819v308h-819v-308zM256 410v202h205v-202h-205z" />
<glyph unicode="&#xe76a;" d="M102 358v308q0 41 31 71.5t72 30.5h819q43 0 72.5 -30.5t29.5 -71.5v-52v-256q0 -43 -29.5 -72.5t-72.5 -29.5h-819q-41 0 -72 29.5t-31 72.5zM205 358h819v308h-819v-308zM256 410v202h205v-202h-205zM512 410v202h205v-202h-205z" />
<glyph unicode="&#xe76b;" d="M102 358v308q0 41 31 71.5t72 30.5h819q43 0 72.5 -30.5t29.5 -71.5v-52v-256q0 -43 -29.5 -72.5t-72.5 -29.5h-819q-41 0 -72 29.5t-31 72.5zM205 358h819v308h-819v-308zM256 410v202h205v-202h-205zM512 410v202h205v-202h-205zM768 410v202h205v-202h-205z" />
<glyph unicode="&#xe771;" horiz-adv-x="1167" d="M102 524h127q4 170 126 289t292 119q174 0 296 -123t122 -297t-122 -297t-296 -123q-141 0 -258 90l72 78q84 -61 186 -61q129 0 221.5 92t92.5 221q0 131 -92.5 223t-221.5 92q-127 0 -218 -88t-95 -215h145l-188 -211zM610 498v239h72v-209l133 -133l-51 -51z" />
<glyph unicode="&#xe776;" horiz-adv-x="1146" d="M102 512q0 113 52 211q39 -63 86 -115q-9 -25 -9 -39q0 -35 21 -61q-61 -117 -82 -238q-68 109 -68 242zM195 791q55 76 131 120q94 -39 155 -84q-6 -16 -6 -32q0 -6 4 -23q-63 -49 -119 -106q-16 4 -28 4q-23 0 -43 -11q-49 53 -94 132zM229 190q12 147 82 281 q6 -2 21 -2q31 0 53 14q145 -100 317 -127q-195 -98 -311 -278q-92 37 -162 112zM408 952q86 31 165 31q123 0 236 -63q-78 -14 -166 -52q-27 27 -68 27q-29 0 -51 -14q-59 43 -116 71zM418 623q39 45 100 92q27 -20 57 -21q14 0 39 8q96 -111 138 -245q-17 -15 -27 -33 q-164 25 -297 115q4 20 4 30q0 25 -14 54zM459 53q113 164 293 250q14 -10 32 -18q2 -18 2 -54q0 -82 -14 -147q-88 -43 -199 -43q-59 0 -114 12zM666 752q10 20 10 43v10q102 43 215 55q154 -139 153 -348q0 -23 -4 -68q-66 -18 -133 -24q-25 57 -90 61q-49 150 -151 271z M852 131q6 49 6 100q0 10 -1 29t-1 29q39 14 55 61q59 4 111 19q-47 -150 -170 -238z" />
<glyph unicode="&#xe777;" horiz-adv-x="1230" d="M104 487q-8 33 33 74q8 10 37 39t70 69t53 52q23 23 53 22h264h265q31 0 53 -22q16 -16 54 -53t69 -67t39 -40q41 -43 30 -74l-28 -157q-4 -20 -22.5 -33.5t-41.5 -13.5h-835q-23 0 -41.5 13t-22.5 34zM225 528h183q8 0 12 -8l41 -102h307l41 102q4 8 12 8h183l-105 117 h-569z" />
<glyph unicode="&#xe778;" horiz-adv-x="1128" d="M104 369q-8 51 15 98l162 383q23 47 73 47h107l-21 -209h-137l260 -215l262 215h-139l-18 209h104q51 0 76 -47l160 -383q25 -53 14 -98l-35 -189q-2 -20 -19.5 -35.5t-39.5 -15.5h-729q-23 0 -40.5 15.5t-19.5 35.5zM188 332l15 -76q2 -23 19.5 -38t37.5 -15h606 q23 0 40.5 15t19.5 38l12 76q2 23 -10.5 39t-34.5 16h-660q-23 0 -35 -16.5t-10 -38.5z" />
<glyph unicode="&#xe788;" horiz-adv-x="1150" d="M104 506q-4 195 133.5 335t332 142t333.5 -133t144 -330q2 -195 -134.5 -335t-330.5 -144q-195 -2 -335.5 134t-142.5 331zM166 508q2 -98 47 -184l104 63q-29 61 -28 125q0 66 28 127l-104 63q-47 -90 -47 -194zM350 512q0 -92 65.5 -158.5t160 -66.5t160 66.5 t65.5 158.5q0 94 -65.5 159.5t-160 65.5t-160 -65.5t-65.5 -159.5zM387 150q89 -48 195 -48q100 4 182 48l-64 106q-61 -31 -124.5 -31t-124.5 31zM387 877l64 -107q57 29 124.5 29t124.5 -29l64 107q-91 47 -195 45q-96 0 -182 -45zM834 387l106 -63q47 98 45 194 q0 98 -45 184l-106 -63q29 -61 28 -127q1 -64 -28 -125z" />
<glyph unicode="&#xe789;" horiz-adv-x="780" d="M106 971q-14 35 15 49q31 18 49 -14l100 -197q82 23 158 -16t104 -119l134 -387q29 -82 -17.5 -161t-142.5 -114q-96 -29 -179 9t-106 120l-108 394q-20 70 6 137t86 108zM244 614q10 -29 35.5 -42t54.5 -5q29 10 41 37t4 55q-10 29 -36 42.5t-54 5.5q-29 -10 -41 -37 t-4 -56z" />
<glyph unicode="&#xe79a;" horiz-adv-x="1189" d="M102 47q0 4 7 10q53 61 65 148.5t49 122.5q39 35 87 29.5t89 -46.5q43 -41 49.5 -89t-30.5 -85q-88 -86 -234 -104q-86 -12 -82 14zM365 422q66 86 106 125q121 119 352 294t260 148q27 -27 -151 -254t-299 -346q-39 -39 -127 -106q-8 -6 -17 8q-18 35 -49 65 q-33 33 -67 50q-16 6 -8 16z" />
<glyph unicode="&#xe7a1;" horiz-adv-x="1044" d="M102 567q0 164 123 280t297 116t297 -116t123 -280q0 -23 -2 -35l-16 -174l-265 23l17 174v12q0 59 -45 101.5t-108.5 42.5t-108.5 -42t-45 -102v-12l16 -174l-264 -23l-17 174q-2 12 -2 35zM131 256l264 20l17 -167q2 -12 -6.5 -21.5t-22.5 -9.5l-203 -17 q-12 -2 -22.5 6.5t-10.5 18.5zM633 109l16 167l266 -20l-16 -170q-4 -29 -33 -25l-204 17q-29 0 -29 31z" />
<glyph unicode="&#xe800;" horiz-adv-x="1208" d="M103.5 659.5q7.5 22.5 10.5 26.5t21 21l10 10l31 31v-82h856v82l31 -31q35 -33 39 -47q6 -18 0 -56l-78 -460q-4 -23 -20.5 -36.5t-28.5 -15.5h-14h-713q-53 0 -62 52q-6 27 -39.5 228.5t-40.5 231.5q-10 23 -2.5 45.5zM248 717v51q0 23 13 36t26 15h12h610q6 0 14.5 -1 t23 -14t14.5 -36v-51h-713zM350 870q0 23 13.5 36.5t25.5 15.5h12h408q6 0 14 -1t22.5 -14.5t14.5 -36.5h-510zM401 440q0 -51 50 -51h307q23 0 36 12.5t13 24.5l2 14v103h-72v-82h-266v82h-70v-103z" />
<glyph unicode="&#xf020;" horiz-adv-x="1024" />
<glyph unicode="&#xf601;" horiz-adv-x="1126" d="M102 256v205h308v-256h-267q-41 0 -41 51zM102 563v205q0 51 41 51h267v-256h-308zM512 205v256h512v-205q0 -23 -14.5 -37t-36.5 -14h-461zM512 563v256h461q20 0 35.5 -15.5t15.5 -35.5v-205h-512z" />
<glyph unicode="&#x1f304;" d="M104 690q-10 39 23 53l696 254q37 10 51 -24l105 -289h-102l-127 154l-220 -154h-184q-53 0 -92 -40t-39 -93v-164zM307 68v483q0 16 11.5 28.5t27.5 12.5h741q16 0 27.5 -12.5t11.5 -28.5v-483q0 -16 -11 -28.5t-28 -12.5h-741q-16 0 -27.5 12t-11.5 29zM418 129h612 v166l-74 164l-170 -62l-133 -135l-141 174l-94 -219v-88z" />
<glyph unicode="&#x1f30e;" horiz-adv-x="1187" d="M102 512q0 203 144.5 347.5t347.5 144.5q205 0 348 -144.5t143 -347.5q0 -205 -143 -348.5t-348 -143.5q-203 0 -347.5 143.5t-144.5 348.5zM203 662q6 0 22.5 -2.5t28.5 -3.5t26.5 -4t24.5 -8t12 -13q4 -12 -14 -46t-18 -63q0 -31 38.5 -57.5t38.5 -46.5q0 -29 8.5 -70 t8.5 -45q0 -12 37 -55t53 -43q10 0 11 22.5t-2 55t-3 41.5q0 33 14 75q12 43 60.5 72t56.5 47q16 35 9 62.5t-17 44t-34.5 29t-42 17.5t-38 9t-22.5 4q-16 6 -43 7t-37 -3t-27.5 11.5t-17.5 29.5q0 10 15.5 27.5t36 38t28.5 30.5q8 14 17 21.5t22.5 16.5t27.5 22 q4 4 26 17.5t28 23.5q-115 -14 -204 -86t-130 -178zM463 113q68 -20 131 -21q131 0 231 70q-27 45 -120 35q-25 -2 -67 -17.5t-48 -17.5q-76 -16 -78 -17q-12 -2 -26.5 -14t-22.5 -18zM711 877q4 -39 18 -52.5t30.5 -7.5t33 12.5t20.5 1.5q23 -25 0.5 -48t-46.5 -57t-1 -79 q35 -66 98 -65q29 -2 44.5 -37t17.5 -68q10 -82 -15 -143q-23 -45 15 -78q88 115 88 256q0 135 -80 244.5t-207 152.5q-18 -25 -16 -32z" />
<glyph unicode="&#x1f342;" horiz-adv-x="1167" d="M104 180q45 102 132.5 197.5t180.5 157t180 108.5t144 70l56 20q-14 0 -42 -1t-107 -14t-151.5 -39t-165.5 -86.5t-165 -143.5q-23 247 178 366q186 109 518 68q172 -23 201 -52q4 -6 -2 -10q-78 -41 -133.5 -111.5t-80 -135t-66.5 -135t-95 -107.5q-141 -98 -391 -4 q-68 -78 -117 -181q-12 -25 -48 -7t-26 40z" />
<glyph unicode="&#x1f393;" d="M102 615.5q0 19.5 25 33.5l426 240q61 33 123 0l426 -240q25 -14 24.5 -33.5t-24.5 -33.5l-80 -45l-315 104q-23 37 -93 37q-41 0 -68.5 -16.5t-27.5 -41t27.5 -41t68.5 -16.5q27 0 37 4l299 -69l-274 -156q-61 -33 -123 0l-426 240q-25 14 -25 33.5zM272 397l342 -172 l283 140q-4 -23 -8 -48.5t-6 -36t-11.5 -23.5t-25 -23.5t-45.5 -22.5q-41 -18 -82 -42t-64.5 -35t-40 -11t-41 13.5t-65.5 38t-82 40.5q-74 33 -106 70.5t-48 111.5zM950 498l72 39q6 -8 12 -29t17.5 -103.5t-7.5 -201.5q-4 -27 -22 -31t-35.5 5.5t-15.5 19.5 q18 119 13 186.5t-19 91.5z" />
<glyph unicode="&#x1f394;" horiz-adv-x="1230" d="M102 158q10 18 181 565q2 8 10 8h98q10 0 10 -8q10 -29 54.5 -169t85.5 -267t41 -129q0 -4 -4 -4h-89q-6 0 -6 4l-51 170h-180q-49 -168 -51 -170q0 -4 -6 -4h-89q-4 0 -4 4zM268 399h148l-74 271zM616 377q0 86 62 151q51 51 117 68l-2 102q-143 -25 -150 -24 q-6 -2 -10 4q0 2 -5 29.5t-5 31.5q-2 2 1 4t7 2l160 29q0 113 -3 117q0 8 9 8q47 0 53 2q10 0 10 -8v-107q162 23 168 23q8 4 10 -6q0 -2 4.5 -23.5t4.5 -25.5q4 -10 -5 -13l-180 -30v-105h12q88 0 151.5 -36.5t88.5 -102.5q31 -84 -10 -180.5t-137 -163.5q-10 0 -12.5 2 t-16.5 19.5t-16 19.5q-2 6 2 10q88 61 119.5 155.5t-11.5 151.5q-16 -39 -39.5 -77.5t-60.5 -81.5t-88 -67t-109 -15q-53 6 -86 41.5t-33 95.5zM688 377q0 -68 47 -74q29 -6 64 6l-4 219q-35 -12 -62 -41q-45 -45 -45 -110zM860 332q29 25 59.5 69.5t46 80.5t7.5 42 q-37 18 -99 19q-2 0 -6 -1t-6 -1z" />
<glyph unicode="&#x1f3a4;" horiz-adv-x="860" d="M102 492v141q0 20 21 20h31q20 0 20 -20v-141q0 -68 60.5 -126.5t195.5 -58.5t195.5 58.5t60.5 126.5v141q0 20 21 20h30q20 0 21 -20v-141q0 -94 -71 -168t-206 -86v-136h133q20 0 21 -20v-62q0 -20 -21 -20h-368q-20 0 -21 20v62q0 20 21 20h133v136q-135 12 -206 85.5 t-71 168.5zM276 492v161h308v-161q0 -31 -36 -56.5t-118 -25.5t-118 25.5t-36 56.5zM276 725v217q0 31 36 56.5t118 25.5t118 -25.5t36 -56.5v-217h-308z" />
<glyph unicode="&#x1f3a8;" horiz-adv-x="1210" d="M104 477q8 121 106.5 241t221.5 154q297 87 549 -81q74 -49 103.5 -113t20.5 -107t-36 -49q-16 -4 -55 10.5t-82 10.5t-82 -47q-31 -47 -21.5 -77t35 -67t23.5 -51q-2 -27 -37 -64.5t-129 -75.5t-221 -38q-190 0 -298 103.5t-98 250.5zM578 391q0 -33 22 -55.5t55 -22.5 q31 0 53.5 22.5t22.5 55.5t-22.5 54.5t-53.5 21.5q-33 0 -55 -21.5t-22 -54.5z" />
<glyph unicode="&#x1f3ab;" horiz-adv-x="1169" d="M102.5 376.5q-0.5 20.5 16.5 37.5l563 563q14 14 36.5 14t37.5 -14l75 -78q-12 -23 -12 -49q0 -43 31 -72.5t74 -29.5q27 0 49 12l78 -78q14 -14 14 -36.5t-14 -37.5l-564 -563q-16 -16 -36.5 -16t-36.5 16l-78 78q12 20 12 49q0 43 -29.5 73.5t-72.5 30.5q-23 0 -51 -14 l-76 78q-16 16 -16.5 36.5zM240 432l266 -264l416 416l-265 264zM324 432l333 334l183 -182l-334 -334z" />
<glyph unicode="&#x1f3ac;" horiz-adv-x="1208" d="M102 195v61h103v102h-103v103h103v102h-103v103h103v102h-103v61q0 18 12.5 29.5t28.5 11.5h922q16 0 28.5 -11t12.5 -30v-61h-102v-102h102v-103h-102v-102h102v-103h-102v-102h102v-61q0 -16 -12.5 -28.5t-28.5 -12.5h-922q-16 0 -28.5 12t-12.5 29zM492 358l256 154 l-256 154v-308z" />
<glyph unicode="&#x1f3af;" horiz-adv-x="1085" d="M102 512q0 182 129 311t311.5 129t311.5 -129t129 -311t-129 -311t-311.5 -129t-311.5 129t-129 311zM186 477q12 -127 103.5 -217t218.5 -104v198h72v-198q127 14 217 104t102 217h-197v72h197q-12 127 -102 217t-217 104v-198h-72v198q-127 -14 -218 -104t-104 -217 h199v-72h-199z" />
<glyph unicode="&#x1f3b5;" horiz-adv-x="921" d="M102 154v716q0 43 31 73t72 30h512q43 0 72.5 -30t29.5 -73v-716q0 -41 -29.5 -72t-72.5 -31h-512q-41 0 -72 31t-31 72zM287 291q12 -33 54 -46.5t87 1.5q90 31 90 100v268q37 -6 56.5 -32.5t18.5 -53t-3 -43.5q-4 -10 2 -10q4 0 12 10q33 45 23.5 94.5t-34 82t-50 67.5 t-25.5 55h-61v-376q-43 16 -92 -2q-43 -14 -66 -49t-12 -66z" />
<glyph unicode="&#x1f3c6;" horiz-adv-x="1126" d="M102 854q0 14 11.5 24.5t25.5 10.5h176q49 94 248 94q201 0 250 -94h174q14 0 25.5 -10.5t11.5 -24.5q0 -78 -20.5 -140.5t-65.5 -110.5t-77 -73.5t-89 -62.5q-80 -53 -113.5 -89t-33.5 -87v-68q72 -8 119 -32.5t47 -57.5q0 -37 -67 -64.5t-161 -27.5q-92 0 -159.5 27.5 t-67.5 64.5q0 33 47 57.5t121 32.5v68q0 51 -34 86t-116 90q-57 37 -89 62.5t-77 73.5t-65.5 110.5t-20.5 140.5zM176 817q8 -92 55.5 -151.5t128.5 -116.5q-49 106 -55 268h-129zM369 844q0 -14 18.5 -31.5t65.5 -33t110.5 -15.5t110.5 15.5t65.5 32.5t18.5 32 q0 12 -18.5 29.5t-65.5 33t-110.5 15.5t-110.5 -15.5t-65.5 -33t-18.5 -29.5zM766 549q82 57 129 116.5t55 151.5h-129q-6 -162 -55 -268z" />
<glyph unicode="&#x1f44d;" horiz-adv-x="1024" d="M102 233v248q0 63 34 102.5t64.5 48.5t55.5 9q14 0 0 -14q-51 -51 -51 -107v-325q0 -51 53 -107q10 -10 -2 -10q-27 0 -56.5 8t-63.5 46t-34 101zM307 184v351q0 14 15.5 34.5t47 46t54 42t63.5 44t48 31.5q51 35 106 102.5t87 106.5t42 27q49 -78 29.5 -140.5 t-60.5 -122t-41 -61.5q2 -6 59.5 -13t111 -24.5t53.5 -48.5q0 -74 -62.5 -291t-109.5 -217q-147 0 -295 43t-148 90z" />
<glyph unicode="&#x1f44e;" horiz-adv-x="1024" d="M102 463q0 74 63.5 292t108.5 218q147 0 295 -44t148 -91v-351q0 -10 -8.5 -24t-25.5 -30.5t-32.5 -30t-43 -33t-42 -29.5t-42 -28.5t-34.5 -22.5q-51 -35 -106 -102.5t-87 -106.5t-42 -27q-49 78 -29.5 140.5t60.5 122t41 61.5q-2 6 -58.5 13t-111 24.5t-54.5 48.5z M766 934q-10 10 2 10q27 0 56.5 -8t63.5 -46t34 -102v-247q0 -49 -18.5 -83t-46.5 -49.5t-49.5 -21.5t-39.5 -6q-12 0 2 14q49 51 49 107v325q0 51 -53 107z" />
<glyph unicode="&#x1f45c;" horiz-adv-x="1087" d="M104 776q-4 35 23 62q6 6 55 44t58 44q18 16 57 16h491q39 0 58 -16q79 -59 112 -88q29 -27 25 -62l-100 -663q-8 -31 -39 -31h-600q-29 0 -41 31q-96 635 -99 663zM182 768h721l-112 119h-496zM334 676q47 -285 209 -285q57 0 100 35t64.5 91t31 91t13.5 68h-95 q-39 -193 -114.5 -193t-114.5 193h-94z" />
<glyph unicode="&#x1f464;" horiz-adv-x="1167" d="M102 51v109q0 51 209 125q96 35 131 70.5t35 97.5q0 23 -22.5 50t-32.5 75q-2 12 -9 18t-14.5 8t-14.5 17.5t-9 44.5q0 16 5 26t9 13l4 4q-8 51 -12 90q-4 55 42 114.5t160.5 59.5t162 -59.5t40.5 -114.5l-12 -90q18 -8 19 -43q-2 -29 -9.5 -44.5t-14.5 -17.5t-14 -8 t-10 -18q-8 -49 -31.5 -76t-23.5 -49q0 -61 36 -97t130 -71q209 -74 209 -125v-109h-481h-482z" />
<glyph unicode="&#x1f465;" d="M102 61v189q0 45 86 80q78 33 107 65.5t29 89.5q0 20 -19.5 45t-25.5 70q-2 10 -18.5 22.5t-20.5 57.5q0 14 3 23.5t7 13.5l4 2q-6 47 -10 84q-4 51 33.5 105.5t130 54.5t130 -54.5t33.5 -105.5l-10 -84q14 -8 14 -39q-4 -45 -20 -57.5t-18 -22.5q-6 -45 -25.5 -69.5 t-19.5 -45.5q0 -57 28.5 -89.5t106.5 -65.5q186 -80 186 -127v-142h-711zM688 621q0 25 12 30q-6 35 -8 62q-4 39 23.5 80t97.5 41t98.5 -41t24.5 -80l-8 -62q12 -6 12 -30q-2 -35 -14.5 -43.5t-14.5 -16.5q-6 -35 -19 -52t-13 -34q0 -43 21.5 -67.5t78.5 -49.5 q115 -47 133 -82q6 -8 9 -62t5 -103v-50h-229v154q0 55 -30.5 83t-157.5 91q41 31 41 86q0 16 -13.5 33.5t-19.5 52.5q-2 8 -14.5 16.5t-14.5 43.5z" />
<glyph unicode="&#x1f4a1;" horiz-adv-x="923" d="M104 725q8 123 96.5 211t260.5 88q174 0 261 -88t97 -211q4 -61 -16.5 -115.5t-53 -98.5t-66.5 -87t-58.5 -98.5t-24.5 -116.5h-276q0 74 -37 143.5t-80 115.5t-76 114.5t-27 142.5zM213 696.5q4 -16.5 2 -20.5t5 -19.5t6 -18.5t8.5 -18.5t11.5 -19.5t13 -19.5t14 -19.5 t15.5 -21.5t16.5 -23.5q90 -125 115 -217h84q25 96 114 217q4 6 26 36t26 37t17 29.5t16.5 34t6.5 28.5t1 36q-16 201 -250 201q-232 0 -248 -201q-4 -4 0 -20.5zM317 41v106h289v-106q-72 -43 -145 -41q-72 -2 -144 41z" />
<glyph unicode="&#x1f4a5;" horiz-adv-x="1130" d="M105 362.5q-5 14.5 16 30.5l88 78q20 16 20 42t-20 42l-88 78q-20 16 -16 33.5t28 23.5l80 23q25 6 42 28.5t15 49.5l-6 83q0 27 15.5 37.5t37.5 -0.5l82 -39q25 -10 50.5 -1.5t37.5 30.5l48 82q12 23 30.5 22t30.5 -24l51 -88q12 -23 36 -30t46 7l139 86q23 14 31 6 t0 -32l-61 -174q-10 -23 2 -42.5t39 -21.5l116 -12q27 -2 31 -16.5t-16 -30.5l-88 -78q-18 -16 -18.5 -42t18.5 -42l88 -78q20 -16 16 -33.5t-29 -23.5l-79 -23q-25 -6 -41.5 -28.5t-14.5 -48.5l4 -84q2 -25 -14 -35.5t-39 0.5l-88 45q-23 12 -48.5 4t-35.5 -31l-47 -90 q-12 -23 -29.5 -24t-34.5 20l-51 80q-35 49 -90 20l-125 -71q-23 -14 -33 -6t-2 32l56 168q8 25 -4.5 45.5t-36.5 22.5l-109 12q-25 4 -30 18.5zM514 299h102v107h-102v-107zM514 463h102v266h-102v-266z" />
<glyph unicode="&#x1f4a6;" horiz-adv-x="1167" d="M102 618q0 59 34 114.5t75 126.5t51 159q2 4 7 4t5 -4q10 -88 51.5 -159t75 -126t33.5 -115q0 -68 -49 -115.5t-116.5 -47.5t-117 48t-49.5 115zM418 164q0 59 33.5 114.5t75 126t51.5 158.5q2 4 7 4t5 -4q10 -88 51 -158.5t75 -126t34 -114.5q0 -68 -49.5 -116t-117 -48 t-116.5 48t-49 116zM733 618q0 49 21.5 95.5t49 80t54.5 94t35 130.5q2 4 7 4t5 -4q10 -88 51 -159t75 -126t34 -115q0 -68 -49 -115.5t-117 -47.5t-117 48t-49 115z" />
<glyph unicode="&#x1f4a7;" horiz-adv-x="778" d="M102 305q0 84 37 164t84 139.5t94.5 162.5t61.5 224q2 8 11 8t9 -8q14 -121 61.5 -224t94.5 -162.5t84 -139.5t37 -164q0 -117 -85 -201t-202 -84t-202 84t-85 201zM184 297q0 -25 17.5 -42t42.5 -17q59 0 59 69q0 96 43 252q2 6 5 17.5t5 17.5q2 4 -2 14q-6 6 -14 6 t-12 -6l-41 -59q-33 -47 -49.5 -71.5t-35 -77t-18.5 -103.5z" />
<glyph unicode="&#x1f4a8;" horiz-adv-x="1130" d="M104.5 743.5q1.5 22.5 18.5 36.5q49 41 81 61.5t91 41t132 4t163 -67.5t158.5 -54t102.5 16.5t91 68.5q39 31 72 -6q33 -41 -6 -74q-125 -113 -240 -113q-102 0 -227 72q-70 39 -122 53.5t-95 0t-67 -30t-69 -52.5q-16 -14 -36.5 -12t-34.5 19q-14 14 -12.5 36.5z M117 182q-33 41 6 74q39 35 61.5 51.5t70.5 39t90 23.5t107.5 -15.5t137.5 -57.5q70 -39 122 -53.5t95 0t66.5 30t68.5 52.5q39 33 72 -7q14 -14 12 -36.5t-18 -36.5q-41 -35 -67 -54.5t-74 -39t-99 -19.5q-98 0 -227 72q-70 39 -122 53t-95 1t-68 -29.5t-68 -53.5 q-14 -14 -35.5 -12t-35.5 18zM117 444q-33 41 6 74q39 35 61.5 51.5t70.5 39t90 23.5t107.5 -15.5t137.5 -57.5q70 -39 122 -53t95 0t66.5 29.5t68.5 52.5q39 33 72 -6q33 -41 -6 -74q-41 -35 -67 -54.5t-74 -39t-99 -19.5q-98 0 -227 72q-70 39 -122 53.5t-95 0t-67 -30 t-69 -52.5q-14 -14 -35.5 -12t-35.5 18z" />
<glyph unicode="&#x1f4b3;" d="M102 256v512q0 41 31 71.5t72 30.5h819q43 0 72.5 -30.5t29.5 -71.5v-512q0 -43 -29.5 -72.5t-72.5 -29.5h-819q-41 0 -72 29.5t-31 72.5zM205 256h819v307h-819v-307zM205 717h819v51h-819v-51zM307 362v31h31v31h31v31h61v-31h-31v-31h-30v-31h-62zM307 424v31h31v-31 h-31zM399 362v31h62v-31h-62zM461 393v62h61v-31h-30v-31h-31zM492 362v31h30v31h31v31h61v-31h-30v-31h-31v-31h-61zM584 362v31h30v-31h-30z" />
<glyph unicode="&#x1f4bb;" d="M102 297v563q0 41 31 72t72 31h819q43 0 72.5 -31t29.5 -72v-563q0 -43 -29.5 -79t-70.5 -44l-223 -45l88 -39q51 -29 -21 -29h-512q-100 0 33 54l37 14l-225 45q-41 8 -71 44t-30 79zM205 301h819v569h-819v-569z" />
<glyph unicode="&#x1f4bc;" d="M102 385q8 231 11 299q4 111 102 111h164q16 27 37.5 68.5t23.5 45.5q14 27 23.5 33t38.5 6h227q27 0 37 -7t22 -32q18 -33 62 -114h164q98 0 102 -111l10 -299h-464v102h-93v-102h-467zM129 334h440v-103h93v103h440q-6 -90 -10 -170q-6 -86 -93 -86h-768q-92 0 -92 86z M465 795h299l-29 55q-14 27 -43 27h-155q-29 0 -43 -27z" />
<glyph unicode="&#x1f4be;" horiz-adv-x="1024" d="M102 205v614q0 43 31 73t72 30h571l146 -160v-557q0 -41 -30 -72t-73 -31h-614q-41 0 -72 31t-31 72zM307 614q0 -20 15.5 -35.5t35.5 -15.5h308q20 0 35.5 15.5t15.5 35.5v256h-410v-256zM563 614v205h103v-205h-103z" />
<glyph unicode="&#x1f4bf;" horiz-adv-x="1146" d="M102 512q0 195 138.5 333t333 138t332.5 -138t138 -333t-138 -333t-332.5 -138t-333 138t-138.5 333zM420 512q0 -63 45 -108.5t108.5 -45.5t108.5 45.5t45 108.5q0 66 -44 110t-110 44q-63 0 -108 -45.5t-45 -108.5z" />
<glyph unicode="&#x1f4c1;" horiz-adv-x="1232" d="M104 616q-2 25 6.5 37.5t41.5 12.5h929q33 0 41 -12.5t6 -37.5l-43 -462q-2 -25 -12 -38.5t-43 -13.5h-825q-53 0 -58 52zM190 737l15 135q4 20 20.5 35t36.5 15h168q53 0 88 -35l31 -31q33 -37 88 -37h348q20 0 39 -12.5t23 -28.5l10 -41h-867z" />
<glyph unicode="&#x1f4c4;" horiz-adv-x="921" d="M102 154v716q0 43 31 73t72 30h512q43 0 72.5 -30t29.5 -73v-716q0 -41 -29.5 -72t-72.5 -31h-512q-41 0 -72 31t-31 72zM205 154h512v716h-512v-716zM317 268v90h287v-90h-287zM317 670v90h287v-90h-287zM319 469v92h287v-92h-287z" />
<glyph unicode="&#x1f4c5;" horiz-adv-x="1126" d="M102 154v614q0 43 31 72.5t72 29.5h47v-102h164v102h297v-102h164v102h45q43 0 72.5 -29.5t29.5 -72.5v-614q0 -41 -29.5 -72t-72.5 -31h-717q-41 0 -72 31t-31 72zM205 154h717v409h-717v-409zM297 799v174h72v-174h-72zM758 799v174h71v-174h-71z" />
<glyph unicode="&#x1f4c8;" horiz-adv-x="1230" d="M104 502q10 43 56 33l100 -25l-53 -82l-70 16q-43 10 -33 58zM104.5 109.5q-4.5 19.5 6.5 33.5l383 602q8 16 28 21q18 6 37 -6l252 -160l231 334q10 16 29 19t35 -9q39 -25 12 -63l-258 -371q-25 -37 -63 -12l-250 159l-359 -563q-12 -23 -38 -22q-12 0 -25 8 q-16 10 -20.5 29.5zM446 369l52 82l37 -9q12 -4 16 -8l270 -209l228 207q14 12 33.5 11t31.5 -15q33 -33 -2 -66l-258 -231q-12 -12 -31 -12q-14 0 -28 10l-293 225z" />
<glyph unicode="&#x1f4ca;" horiz-adv-x="1024" d="M102 51v256q0 51 41 51h113q23 0 37 -15t14 -36v-256h-205zM410 51v563q0 51 41 52h112q23 0 37 -15.5t14 -36.5v-563h-204zM717 51v871q0 51 41 51h112q23 0 37.5 -15.5t14.5 -35.5v-871h-205z" />
<glyph unicode="&#x1f4cb;" horiz-adv-x="921" d="M102 72v778q0 29 21.5 50.5t50.5 21.5l62 -154h450l62 154q29 0 50 -21.5t21 -50.5v-778q0 -31 -21.5 -51.5t-49.5 -20.5h-574q-29 0 -50.5 20.5t-21.5 51.5zM231 922h111l37 102h164l37 -102h112l-47 -103h-369z" />
<glyph unicode="&#x1f4ce;" horiz-adv-x="1165" d="M102 254q-2 98 86 195l508 507q82 82 178 56q45 -12 81 -48t49 -81q27 -98 -56 -181l-485 -485q-41 -41 -90 -47q-49 -4 -82 29q-31 25 -28 76t48 94l340 342q25 27 51.5 0t-0.5 -52l-340 -340q-45 -45 -20 -71q12 -8 25 -6q25 4 47 26l485 486q51 51 35 110 q-16 61 -78 78q-55 14 -111 -37l-505 -506q-68 -78 -66 -146.5t53 -119.5q51 -49 120 -51t145 63l507 506q25 25 52 0q27 -23 0 -49l-508 -508q-85 -84 -191 -84q-104 0 -174 74q-74 72 -76 170z" />
<glyph unicode="&#x1f4d1;" horiz-adv-x="768" d="M102 0v819q0 51 41 51h215q20 0 36 -15t16 -36v-819l-154 184zM358 973q0 51 41 51h215q20 0 36 -15.5t16 -35.5v-871l-154 185v635q0 20 -15.5 35.5t-35.5 15.5h-103z" />
<glyph unicode="&#x1f4d5;" horiz-adv-x="921" d="M102 858q0 29 15 53q29 47 104.5 79t118.5 9l461 -237q18 -8 18 -29v-575q0 -14 -12 -25.5t-29 -11.5q-47 0 -47 37v534q0 12 -12 19l-414 221q-33 10 -69 -10q-45 -20 -58 -45l418 -234q18 -8 18 -29v-563q0 -23 -18 -28q-6 -4 -16 -5q-14 0 -21 5q-8 6 -206.5 129.5 t-217.5 134.5q-27 18 -26 35z" />
<glyph unicode="&#x1f4d6;" horiz-adv-x="1126" d="M102 266v656q0 31 23 43q23 16 47 6l391 -158l391 158q24 10 47 -6q23 -12 23 -43v-656q0 -35 -33 -47l-407 -164q-8 -2 -10.5 -2t-5.5 -1t-5 -1t-5 1t-5 1l-10 2l-408 164q-33 12 -33 47zM184 289l328 -131v573l-328 131v-573zM246 410v69l205 -82v-69zM246 623v69 l205 -82v-69zM614 158l328 131v573l-328 -131v-573zM676 328v69l205 82v-69zM676 541v69l205 82v-69z" />
<glyph unicode="&#x1f4de;" horiz-adv-x="1024" d="M103 229.5q1 12.5 2 31t15.5 35.5t39.5 38q43 35 71.5 48t55 2t36 -18.5t39.5 -37.5q45 -45 213 123q166 166 121 211l-8 8q-31 31 -42 49t-4 55t50 90q20 25 38 40.5t36 16.5t30.5 1t30 -13.5t24.5 -18.5t26.5 -25.5t21.5 -22.5q49 -49 -6 -198.5t-209 -301.5 q-154 -154 -302.5 -210t-197.5 -7q-2 2 -23.5 22.5t-25.5 25.5t-18.5 24.5t-13.5 32z" />
<glyph unicode="&#x1f4e3;" horiz-adv-x="1087" d="M108 421q11 48 44 62q129 53 218 110.5t127 106t60.5 94.5t25.5 79.5t15 60.5t37 37q49 20 133 -72t145 -233q59 -141 68.5 -264t-39.5 -144q-29 -12 -62.5 3t-66.5 41t-101.5 42t-152.5 8q-29 -4 -43 -19.5t-6 -37.5q23 -57 47 -111q4 -10 24.5 -22t24.5 -21 q14 -35 -22 -47q-51 -23 -105 -41q-31 -10 -55 43q-33 78 -59 135q-6 12 -35 17.5t-47 32.5q-31 -10 -39 -15q-35 -12 -76 12.5t-55 61.5q-16 33 -5 81zM657 821q-2 -39 10.5 -107.5t41 -136t69.5 -122t70 -78t37 -19.5t10 39t-11.5 100.5t-41.5 131.5q-29 68 -69 126 t-68.5 85.5t-37 23.5t-10.5 -43z" />
<glyph unicode="&#x1f4e4;" horiz-adv-x="1230" d="M104 283q-10 49 33 73l162 111h100l-174 -133h183q8 0 12 -8l41 -113h307l41 113q8 8 12 8h183l-175 133h101l164 -111q18 -10 27 -32.5t3 -40.5l-28 -158q-4 -20 -22.5 -33.5t-41.5 -13.5h-835q-23 0 -41.5 13t-22.5 34zM348 698l266 250l267 -250h-168v-262h-195v262 h-170z" />
<glyph unicode="&#x1f4e5;" horiz-adv-x="1230" d="M104 283q-10 49 33 73l162 111h100l-174 -133h183q8 0 12 -8l41 -113h307l41 113q8 8 12 8h183l-175 133h101l164 -111q18 -10 27 -32.5t3 -40.5l-28 -158q-4 -20 -22.5 -33.5t-41.5 -13.5h-835q-23 0 -41.5 13t-22.5 34zM348 686h170v262h195v-262h168l-267 -250z" />
<glyph unicode="&#x1f4e6;" horiz-adv-x="1126" d="M102 768v123q0 12 9.5 21.5t21.5 9.5h860q12 0 21.5 -9.5t9.5 -21.5v-123h-922zM154 174v543h819v-543q0 -31 -21.5 -51.5t-50.5 -20.5h-676q-29 0 -50 20.5t-21 51.5zM410 512h307v102h-307v-102z" />
<glyph unicode="&#x1f4f0;" horiz-adv-x="1024" d="M102 154v716q0 43 31 73t72 30h614q43 0 73 -30t30 -73v-716q0 -41 -30 -72t-73 -31h-614q-41 0 -72 31t-31 72zM205 154h614v716h-614v-716zM307 256v51h410v-51h-410zM307 358v52h256v-52h-256zM307 461v51h103v-51h-103zM307 563v205h154v-205h-154zM461 461v51h256 v-51h-256zM512 563v51h205v-51h-205zM512 666v102h205v-102h-205zM614 358v52h103v-52h-103z" />
<glyph unicode="&#x1f4f1;" horiz-adv-x="798" d="M102 113v798q0 43 31 73t72 30h389q43 0 72.5 -30t29.5 -73v-798q0 -41 -29.5 -72t-72.5 -31h-389q-41 0 -72 31t-31 72zM184 205h430v676h-430v-676zM328 102.5q0 -20.5 21 -36t50 -15.5q31 0 51.5 15.5t20.5 35.5q0 23 -20.5 37.5t-51.5 14.5q-29 0 -50 -15.5t-21 -36z " />
<glyph unicode="&#x1f4f6;" horiz-adv-x="1208" d="M102 711q209 211 503 211t501 -211l-72 -72q-178 180 -430 180t-430 -180zM246 565q150 152 359.5 152t357.5 -152l-72 -71q-119 121 -286 120.5t-288 -120.5zM389 422q90 90 215 90t215 -90l-71 -74q-59 59 -143.5 59.5t-143.5 -59.5zM504 205q0 41 29.5 71.5t70.5 30.5 q43 0 73 -30.5t30 -71.5q0 -43 -30 -73t-73 -30q-41 0 -70.5 30t-29.5 73z" />
<glyph unicode="&#x1f4f7;" d="M102 205v461q0 43 31 72.5t72 29.5h123q29 0 41 31l30 94q10 29 41 29h348q31 0 41 -29l31 -94q12 -31 41 -31h123q43 0 72.5 -29.5t29.5 -72.5v-461q0 -41 -29.5 -72t-72.5 -31h-819q-41 0 -72 31t-31 72zM358 460.5q0 -106.5 75 -181t181.5 -74.5t181 74.5t74.5 181 t-74.5 181.5t-181 75t-181.5 -75t-75 -181.5zM461 460.5q0 63.5 45 108.5t108 45q66 0 110 -45t44 -108.5t-45 -108.5t-108.5 -45t-108.5 45t-45 108.5zM952 631q0 -16 11.5 -26.5t26 -10.5t24.5 11t10 25.5t-10 25t-25 10.5q-37 0 -37 -35z" />
<glyph unicode="&#x1f4f8;" horiz-adv-x="921" d="M102 262v103q0 8 4.5 10t10.5 -8q33 -53 128 -88t216 -35t216 35t128 88q14 20 14 -2v-103q0 -76 -106.5 -138.5t-251.5 -62.5q-143 0 -251 62.5t-108 138.5zM102 508v119q0 20 15 0q31 -47 127 -77t217 -30t217 30t129 77q8 16 12 0v-119q0 -70 -104.5 -117t-253.5 -47 q-147 0 -253 47t-106 117zM102 762v65q0 55 105.5 95.5t253 40.5t253 -40t105.5 -96v-65q0 -59 -105.5 -101.5t-253 -42.5t-253 42t-105.5 102z" />
<glyph unicode="&#x1f4fd;" horiz-adv-x="1128" d="M104 367q-8 53 15 98l162 383q23 47 73 47h418q51 0 76 -47l160 -383q27 -45 14 -98l-35 -189q-2 -20 -19.5 -35.5t-39.5 -15.5h-729q-20 0 -39 15.5t-21 35.5zM188 330l15 -76q2 -23 19.5 -38t39.5 -15h604q23 0 40.5 15t19.5 38l12 76q2 23 -10.5 39t-34.5 16h-660 q-23 0 -35 -16.5t-10 -38.5z" />
<glyph unicode="&#x1f4fe;" horiz-adv-x="1142" d="M104 465q-8 125 160 188q-18 96 -22 142q-8 57 106.5 107t290.5 50q178 0 293 -50t106 -107q-6 -39 -49 -314.5t-45 -287.5q-2 -18 -38 -45t-109.5 -51.5t-157.5 -24.5t-156.5 24.5t-108.5 51t-38 45.5q0 2 -4 30q84 -6 167 36t142 120q29 0 49.5 20.5t20.5 51.5 q0 29 -20.5 50t-51.5 21q-29 0 -50.5 -21.5t-21.5 -49.5q0 -20 11 -37q-49 -59 -118 -91t-134 -28q-104 10 -160.5 58t-61.5 112zM176 471q4 -33 38 -60.5t93 -39.5l-33 209q-102 -46 -98 -109zM326 782.5q0 -14.5 38.5 -36t114.5 -40t160 -18.5t161 18.5t115.5 40t38.5 36 t-38.5 36t-114.5 40t-162 18.5q-84 0 -160 -18.5t-114.5 -40t-38.5 -36z" />
<glyph unicode="&#x1f4ff;" horiz-adv-x="757" d="M102 276q0 78 39 141.5t105 100.5v455q0 51 41 51h174q20 0 35.5 -15.5t15.5 -35.5v-455q66 -37 104.5 -100.5t38.5 -141.5q0 -115 -80.5 -195.5t-195.5 -80.5t-196 81t-81 195zM205 276q0 -72 51 -123t123 -51t123 51.5t51 122.5q0 57 -33 102.5t-86 61.5v379h-102v-377 q-55 -16 -91 -62t-36 -104z" />
<glyph unicode="&#x1f500;" d="M102 211v143h107q55 0 108.5 33t83 67.5t84.5 106.5q63 84 103.5 129t119 90t166.5 45h37v123l215 -184l-215 -184v102h-37q-55 0 -107 -33t-82 -67.5t-85 -106.5q-49 -63 -76.5 -96t-80 -79t-110 -67.5t-124.5 -21.5h-107zM102 672v143h107q143 0 260 -110 q-14 -16 -37.5 -46t-28.5 -34q-8 -13 -24 -33q-76 80 -170 80h-107zM608 319q47 59 74 95q0 2 6 9t8 11q86 -90 178 -90h37v102l215 -184l-215 -184v123h-37q-143 0 -266 118z" />
<glyph unicode="&#x1f501;" horiz-adv-x="1126" d="M102 307v297q0 43 31 73t72 30h256v112l205 -184l-205 -184v112h-215v-215h635v215h-154v144h195q43 0 72.5 -30t29.5 -73v-297q0 -41 -29.5 -71.5t-72.5 -30.5h-717q-41 0 -72 30.5t-31 71.5z" />
<glyph unicode="&#x1f504;" horiz-adv-x="1048" d="M104 518q2 172 123 295q102 102 246 119l4 -105q-102 -16 -176 -90q-90 -90 -92 -218t86 -222l119 119v-299l-283 16l90 88q-119 125 -117 297zM573 199q100 16 175 90q90 90 92 218t-86 222l-117 -119l-2 299l283 -16l-91 -88q119 -125 117 -297t-123 -295 q-98 -100 -246 -121z" />
<glyph unicode="&#x1f505;" horiz-adv-x="921" d="M102 512q0 16 15.5 28.5t36 12.5t36 -12.5t15.5 -28.5q0 -41 -51.5 -41t-51.5 41zM207 759.5q29 28.5 65 -7.5q14 -14 16.5 -34t-7.5 -30q-31 -29 -66 6q-37 37 -8 65.5zM211 254q-31 29 6 65.5t65.5 8t-8.5 -65.5q-14 -14 -33.5 -16t-29.5 8zM297 512q0 68 48 116 t116 48q70 0 117 -48t47 -116q0 -70 -47.5 -117t-116.5 -47q-68 0 -116 47t-48 117zM356 512q0 -45 31 -75.5t74 -30.5q45 0 74.5 30.5t29.5 75.5q0 43 -29.5 73.5t-74.5 30.5q-43 0 -74 -30.5t-31 -73.5zM420 204.5q0 20.5 12 36t28.5 15.5t29 -15.5t12.5 -36t-12.5 -35.5 t-29 -15t-28.5 15t-12 35.5zM420 819.5q0 20.5 12 35.5t28.5 15t29 -15t12.5 -35.5t-12.5 -36t-29 -15.5t-28.5 15.5t-12 36zM631 721.5q2 19.5 16 34.5q37 35 65.5 6t-7.5 -66q-14 -14 -34 -16t-30 10q-12 12 -10 31.5zM643 329.5q29 28.5 66 -7.5q14 -14 16 -34t-10 -30 q-31 -29 -66 6q-35 37 -6 65.5zM719 512q0 16 14.5 28.5t34.5 12.5t35.5 -12.5t15.5 -28.5q0 -41 -51 -41q-49 0 -49 41z" />
<glyph unicode="&#x1f506;" d="M102 512q0 16 15.5 28.5t36.5 12.5h51q20 0 35.5 -12.5t15.5 -28.5q0 -41 -51 -41h-51q-51 0 -52 41zM221.5 863q-2.5 20 9.5 32q10 12 30 10t34 -16l37 -37q37 -37 6 -66q-10 -10 -29.5 -8t-34.5 17q-31 31 -36 34q-14 14 -16.5 34zM231 127q-31 29 7 66q5 3 36 34 q14 16 34 18.5t30 -9.5q12 -12 10 -32t-16 -34l-37 -37q-14 -14 -33.5 -16t-30.5 10zM334 512q0 117 82 199t198.5 82t199.5 -82t83 -199q0 -119 -83 -201t-199.5 -82t-198.5 82t-82 201zM410 512q0 -86 60 -145.5t144 -59.5t144.5 59.5t60.5 145.5q0 84 -60.5 144.5 t-144.5 60.5t-144 -60.5t-60 -144.5zM573 51v51q0 20 12.5 36t29 16t28.5 -15.5t12 -36.5v-51q0 -20 -12 -35.5t-28.5 -15.5t-29 15.5t-12.5 35.5zM573 922v51q0 20 12.5 35.5t29 15.5t28.5 -15.5t12 -35.5v-51q0 -20 -12 -36t-28.5 -16t-29 15.5t-12.5 36.5zM891 235.5 q29 28.5 65 -8.5l35 -34q37 -37 8.5 -66t-65.5 6q-31 31 -35 37q-37 37 -8 65.5zM891 786q-29 29 8 66q4 6 35 37q37 35 65.5 6t-8.5 -66l-35 -34q-35 -35 -65 -9zM975 512q0 16 15.5 28.5t35.5 12.5h49q20 0 35.5 -12.5t15.5 -28.5q0 -41 -51 -41h-49q-51 0 -51 41z" />
<glyph unicode="&#x1f507;" horiz-adv-x="1110" d="M102.5 112.5q-0.5 22.5 16.5 37.5l801 800q34 33 71 0q16 -16 16.5 -36.5t-16.5 -36.5l-801 -801q-18 -14 -34 -15q-18 0 -37 15q-16 14 -16.5 36.5zM211 342q-41 135 28.5 289.5t135.5 220.5q35 33 107.5 11.5t162.5 -87.5l-53 -51q-59 39 -107.5 54.5t-58.5 4.5 q-4 -8 -2 -28.5t19 -59.5t44 -78zM373 158l284 282q45 -33 90.5 -55.5t69 -25.5t33.5 1q6 10 2 35t-26.5 70t-55.5 90l51 51q76 -94 103.5 -176t-6.5 -119q-25 -25 -77.5 -58.5t-134 -72.5t-164.5 -46t-169 24z" />
<glyph unicode="&#x1f50a;" horiz-adv-x="1138" d="M104.5 303.5q-10.5 104.5 29.5 198.5t80 159.5t69 94.5q43 43 152.5 -5.5t222 -161t160.5 -222t5 -152.5q-29 -29 -94 -69t-159.5 -79.5t-199 -29.5t-180 86t-86 180.5zM332 690q-8 -10 3 -50t50 -103.5t96 -122.5q59 -57 123 -96t104 -50.5t50 -3.5q8 10 -3.5 50 t-50 103.5t-98.5 121.5q-57 59 -120.5 98t-103.5 50t-50 3zM556.5 825.5q-5.5 20.5 4.5 38.5l55 99q27 45 70 20q18 -10 23.5 -30.5t-4.5 -39.5l-56 -98q-14 -27 -43 -27q-14 1 -26 7q-18 10 -23.5 30.5zM713 719.5q0 21.5 16 36.5l96 98q37 33 74 0q33 -37 0 -74l-98 -96 q-17 -16 -37 -16q-18 0 -35 16q-16 14 -16 35.5zM836 573.5q6 20.5 24 30.5l98 55q18 10 39 5t31 -23t4 -38.5t-24 -31.5l-99 -55q-16 -8 -24 -8q-29 0 -45 27q-10 18 -4 38.5z" />
<glyph unicode="&#x1f50b;" d="M102 512q0 113 71 210t204 97h512q86 0 120.5 -19.5t65.5 -66.5h-67q-43 0 -80 -61.5t-37 -159.5q0 -100 37 -160.5t80 -60.5h67q-31 -47 -65.5 -66.5t-120.5 -19.5h-512q-133 0 -204 96t-71 211zM289 602q-8 -14 8 -29q139 -135 184 -165q35 -16 43 -11.5t19 31.5l24 59 l150 -69q27 -12 35 2q10 12 -9 26q-139 137 -182 168q-16 10 -26.5 13.5t-18.5 -5t-10 -12.5t-8 -18l-23 -57l-151 67q-27 12 -35 0zM975 516q0 45 16.5 72.5t38.5 27.5h39q23 0 40 -27.5t17 -72.5t-17 -73.5t-40 -28.5h-39q-23 0 -39 28.5t-16 73.5z" />
<glyph unicode="&#x1f50d;" horiz-adv-x="1013" d="M102 600q0 131 92.5 224.5t223.5 93.5t229 -97.5t98 -228.5q0 -90 -47 -166l195 -193q31 -35 6 -63l-47 -47q-37 -33 -70 0l-194 194q-76 -43 -160 -43q-131 0 -228.5 97.5t-97.5 228.5zM199 600q0 -90 69.5 -159.5t159.5 -69.5t154.5 64.5t64.5 156.5q0 90 -69.5 158.5 t-159.5 68.5t-154.5 -64.5t-64.5 -154.5z" />
<glyph unicode="&#x1f511;" horiz-adv-x="1003" d="M104 137q-8 31 13 58l264 395q-25 51 -39 123q-18 109 54.5 191.5t189.5 103.5q109 20 200 -46.5t109 -181.5q20 -119 -29 -220t-153 -120q-68 -12 -133 -2l-121 -198l-72 -13l-106 -170q-14 -29 -48 -32l-77 -15q-12 -4 -22.5 4.5t-12.5 22.5zM546 810q3 -9 5 -16.5 t13 -17.5t18.5 -15t23 -16.5t23.5 -17.5q6 -4 22.5 -16.5t23.5 -16.5t19.5 -12t19.5 -8t17 1t18.5 8t16.5 19q31 45 21.5 99.5t-52.5 85.5q-43 33 -94 22.5t-82 -55.5q-8 -12 -12 -23.5t-1 -20.5z" />
<glyph unicode="&#x1f512;" horiz-adv-x="921" d="M102 180v400q0 23 15.5 42t36.5 19h102v72q0 113 52 174t152.5 61t153 -61.5t52.5 -173.5v-72h92q20 0 40.5 -19.5t20.5 -41.5v-400q0 -49 -49 -67l-61 -19q-43 -16 -99 -16h-297q-57 0 -100 16l-61 19q-49 18 -50 67zM358 641h205v92q0 53 -27.5 83t-74.5 30t-75 -30 t-28 -83v-92z" />
<glyph unicode="&#x1f513;" horiz-adv-x="921" d="M102 154v399q0 23 15.5 42t36.5 19h409v144q0 113 -102.5 112.5t-102.5 -112.5v-41h-102v20q0 113 52 174.5t153 61.5q205 0 205 -236v-123h92q20 0 40.5 -20.5t20.5 -40.5v-399q0 -20 -14 -40t-35 -26l-61 -20q-53 -16 -99 -17h-297q-47 0 -100 17l-61 20 q-20 6 -35 25.5t-15 40.5z" />
<glyph unicode="&#x1f514;" horiz-adv-x="1024" d="M104 674q9 110 115 196q27 23 30 52.5t30 40.5q25 8 47 -12.5t57 -18.5q135 2 203 -67.5t164 -274.5q16 -35 40.5 -53.5t46 -22.5t45 -23.5t36.5 -56.5q23 -63 -76 -164.5t-258 -160.5q-168 -59 -304.5 -46t-158.5 76q-20 55 12.5 113.5t18.5 114.5q-57 197 -48 307z M190 164q4 -12 51.5 -22.5t137.5 -4.5t180 39t163 87t102.5 93t25.5 52q-8 23 -50 34t-127 0.5t-192 -49.5q-104 -39 -177 -89t-96.5 -86t-17.5 -54zM272 231q81 70 224 123q8 2 21 7.5t18 7.5l2 -2q14 -41 -18 -85t-91 -65q-98 -37 -156 14z" />
<glyph unicode="&#x1f516;" horiz-adv-x="573" d="M102 51v871q0 51 41 51h277q23 0 37 -15.5t14 -35.5v-871l-184 185z" />
<glyph unicode="&#x1f517;" horiz-adv-x="1024" d="M102 295q0 80 58 137l151 152q72 70 148 79t131 -45q16 -16 16 -36.5t-16 -36.5q-37 -33 -72 0q-51 49 -135 -35l-152 -150q-27 -27 -26.5 -65.5t26.5 -63.5q27 -27 65 -26.5t64 26.5l43 41q14 14 35 14.5t37 -14.5q33 -35 0 -71l-43 -41q-57 -57 -135 -58 q-80 0 -137.5 57.5t-57.5 135.5zM420 438q0 21 14 37q14 14 36 14t36 -14q51 -49 125 25l162 159q29 29 28 66q0 39 -28 63q-25 27 -58 32t-61 -21l-51 -51q-16 -14 -37 -14.5t-35 14.5q-35 35 0 71l51 51q55 55 130 52t132 -62q57 -57 58 -135q0 -80 -58 -137l-162 -162 q-76 -74 -153 -74q-63 0 -115 51q-14 14 -14 35z" />
<glyph unicode="&#x1f519;" horiz-adv-x="1075" d="M102 635l215 184v-112h553q41 0 72 -30t31 -73v-297q0 -41 -31 -71.5t-72 -30.5h-706v143h665v215h-512v-112z" />
<glyph unicode="&#x1f526;" horiz-adv-x="1128" d="M109.5 184.5q-13.5 38.5 5.5 57.5l417 417q-6 51 4.5 98.5t26.5 63.5l139 140q25 29 94.5 4t133 -88.5t87 -133t-4.5 -94.5l-138 -137q-16 -16 -63 -26.5t-98 -4.5l-418 -418q-18 -18 -58 -5.5t-77 51.5q-37 37 -50.5 75.5zM460 498.5q-3 -23.5 11 -39.5q33 -33 82 14 q47 47 14 84q-14 14 -38.5 10t-45 -24.5t-23.5 -44zM739 924q-4 -4 1 -29t25.5 -63.5t49.5 -67.5q31 -31 70 -51.5t63.5 -25.5t28.5 -1q2 4 -4 27.5t-26.5 61.5t-51.5 68.5t-67.5 51t-60.5 27t-28 2.5z" />
<glyph unicode="&#x1f53e;" horiz-adv-x="1208" d="M103.5 120q-3.5 7 5.5 17l235 295q20 23 41 2l76 -67q10 -8 21.5 -7.5t17.5 11.5l162 243q16 27 38 4l115 -106q20 -20 39 4l236 387q16 23 16 -4v-786h-987q-12 0 -15.5 7z" />
<glyph unicode="&#x1f53f;" horiz-adv-x="1150" d="M104.5 559q-0.5 8 12.5 12q8 4 451.5 161t451.5 159q14 4 22.5 -3t4.5 -20q-2 -6 -74 -317t-76 -324q-2 -14 -14.5 -19t-24.5 1l-254 137l-31 16l23 27q397 430 403 436q4 4 -1 9.5t-9 1.5l-563 -412l-115 45l-194 78q-12 4 -12.5 12zM424 145v209l164 -84 q-133 -119 -146 -131q-18 -14 -18 6z" />
<glyph unicode="&#x1f545;" horiz-adv-x="1191" d="M104 506q-4 205 138.5 350.5t347.5 147.5q203 2 348 -139.5t149 -344.5q2 -205 -139 -350t-346 -150q-203 -2 -349.5 140.5t-148.5 345.5zM209 508q2 -162 116.5 -273.5t276.5 -109.5q160 2 272.5 116.5t110.5 276.5t-117.5 273.5t-275.5 109.5q-162 -2 -273.5 -116.5 t-109.5 -276.5zM328 512.5q0 69.5 39 108t98 38.5q88 0 127 -67l-64 -33q-10 20 -24.5 28.5t-28.5 8.5q-61 0 -61 -84q0 -39 14 -59q18 -23 47 -23q41 0 60 41l57 -31q-20 -37 -51 -53q-33 -20 -72 -20q-63 0 -102 39q-39 37 -39 106.5zM600 512q0 66 39 109q39 39 100 38 q86 0 123 -67l-61 -33q-10 20 -24.5 28.5t-28.5 8.5q-63 0 -64 -84q0 -37 16.5 -59.5t47.5 -22.5q43 0 57 41l59 -31q-18 -33 -51 -53t-72 -20q-66 0 -102 39q-39 37 -39 106z" />
<glyph unicode="&#x1f546;" horiz-adv-x="1187" d="M102 512q0 205 144.5 348.5t347.5 143.5q205 0 348 -143.5t143 -348.5q0 -203 -143 -347.5t-348 -144.5q-203 0 -347.5 144.5t-144.5 347.5zM193 512q0 -166 117.5 -283.5t283.5 -117.5t283.5 117.5t117.5 283.5q0 168 -117.5 284.5t-283.5 116.5t-283.5 -116.5 t-117.5 -284.5zM461 434v201q0 12 10 22q8 8 23 9h200q14 0 23 -9q10 -10 10 -22v-201h-57v-239h-152v239h-57zM526 761.5q0 69.5 68 69.5q70 0 70 -69.5t-70 -69.5q-68 0 -68 69.5z" />
<glyph unicode="&#x1f547;" horiz-adv-x="1187" d="M102 512q0 205 144.5 348.5t347.5 143.5q205 0 348 -143.5t143 -348.5q0 -203 -143 -347.5t-348 -144.5q-203 0 -347.5 144.5t-144.5 347.5zM193 512q0 -166 117.5 -283.5t283.5 -117.5q113 0 207 57t145 151l-182 82q-8 -47 -47 -75q-39 -31 -88 -35v-76h-58v76 q-80 0 -149 59l67 68q51 -45 111 -45q25 0 43.5 12t18.5 37q0 18 -15 31l-47 20l-57 27l-78 32l-250 113q-23 -63 -22 -133zM258 731l186 -84q12 37 48 64q33 23 79 24v76h58v-76q70 -4 123 -45l-64 -65q-45 29 -86 28q-25 0 -39 -8q-18 -10 -18 -31q0 -8 4 -12l61 -29 l43 -18l80 -35l248 -110q14 45 14 102q0 168 -117.5 284.5t-283.5 116.5q-104 0 -192.5 -49t-143.5 -133z" />
<glyph unicode="&#x1f548;" horiz-adv-x="1187" d="M102 512q0 205 144.5 348.5t347.5 143.5q205 0 348 -143.5t143 -348.5q0 -203 -143 -347.5t-348 -144.5q-203 0 -347.5 144.5t-144.5 347.5zM193 512q0 -166 117.5 -283.5t283.5 -117.5q113 0 206 56t146 152l-252 111h-178q10 -37 27 -57q39 -41 106 -41q47 0 94 20 l19 -92q-57 -31 -127 -31q-131 0 -201 95q-35 45 -47 106h-53v59h45v15q0 4 1 12t1 12h-47v58h10l-129 57q-23 -63 -22 -131zM256 731l162 -72q8 14 28 39q74 84 189 84q72 0 125 -24l-25 -94q-41 20 -90 20q-66 0 -102 -45q-10 -10 -17 -29l58 -24h139v-58h-8l268 -118 q12 49 12 102q0 168 -117.5 284.5t-283.5 116.5q-104 0 -193.5 -49t-144.5 -133z" />
<glyph unicode="&#x1f549;" horiz-adv-x="1187" d="M102 512q0 205 144.5 348.5t347.5 143.5q205 0 348 -143.5t143 -348.5q0 -203 -143 -347.5t-348 -144.5q-203 0 -347.5 144.5t-144.5 347.5zM193 512q0 -166 117.5 -283.5t283.5 -117.5q109 0 200 53t144 143l-156 70v-70h-129v-110h-121v110h-126v76h126v37l-12 24h-114 v76h55l-250 111q-18 -55 -18 -119zM252 721l162 -72l-56 101h131l78 -170l47 -21l84 191h131l-124 -230h77v-35l197 -88q16 59 16 115q0 168 -117.5 284.5t-283.5 116.5q-109 0 -199 -52t-143 -140zM653 383h115l-109 49l-6 -12v-37z" />
<glyph unicode="&#x1f54a;" horiz-adv-x="1187" d="M102 512q0 205 144.5 348.5t347.5 143.5q205 0 348 -143.5t143 -348.5q0 -203 -143 -347.5t-348 -144.5q-203 0 -347.5 144.5t-144.5 347.5zM193 512q0 -166 117.5 -283.5t283.5 -117.5t283.5 117.5t117.5 283.5q0 168 -117.5 284.5t-283.5 116.5t-283.5 -116.5 t-117.5 -284.5zM338 582h37q14 92 74 141q59 49 143 49q117 0 184 -76q68 -74 68 -190q0 -113 -70 -189q-76 -76 -184 -75q-82 0 -146 51q-59 49 -71 141h123q6 -88 108 -88q51 0 84 43q31 45 31 121q0 78 -29 119q-31 41 -84 41q-98 0 -110 -88h36l-98 -97z" />
<glyph unicode="&#x1f54b;" horiz-adv-x="1187" d="M102 512q0 205 144.5 348.5t347.5 143.5q205 0 348 -143.5t143 -348.5q0 -203 -143 -347.5t-348 -144.5q-203 0 -347.5 144.5t-144.5 347.5zM193 512q0 -166 117.5 -283.5t283.5 -117.5t283.5 117.5t117.5 283.5q0 168 -117.5 284.5t-283.5 116.5t-283.5 -116.5 t-117.5 -284.5zM416 387v84h356v-84h-356zM416 545v84h356v-84h-356z" />
<glyph unicode="&#x1f54c;" horiz-adv-x="1187" d="M102 512q0 205 144.5 348.5t347.5 143.5q205 0 348 -143.5t143 -348.5q0 -203 -143 -347.5t-348 -144.5q-203 0 -347.5 144.5t-144.5 347.5zM193 512q0 -166 117.5 -283.5t283.5 -117.5q113 0 206 56t146 152l-434 193q2 -55 28.5 -98t77.5 -43q37 0 66 26l6 6l72 -86 q-4 -2 -10.5 -7t-8.5 -9q-63 -43 -139 -43q-88 0 -162.5 59.5t-74.5 192.5q0 33 6 63l-158 70q-23 -63 -22 -131zM256 731l152 -67q66 104 200 104q90 0 154 -55l-80 -82q-8 8 -14 12q-23 16 -54 16q-53 0 -82 -51l451 -198q12 49 12 102q0 168 -117.5 284.5t-283.5 116.5 q-104 0 -193.5 -49t-144.5 -133z" />
<glyph unicode="&#x1f54d;" horiz-adv-x="1187" d="M102 512q0 205 144.5 348.5t347.5 143.5q205 0 348 -143.5t143 -348.5q0 -203 -143 -347.5t-348 -144.5q-203 0 -347.5 144.5t-144.5 347.5zM193 512q0 -166 117.5 -283.5t283.5 -117.5t283.5 117.5t117.5 283.5q0 168 -117.5 284.5t-283.5 116.5t-283.5 -116.5 t-117.5 -284.5zM391 512q0 119 46 202t157 83t157 -83t46 -202q0 -117 -46 -200t-157 -83t-157 83t-46 200zM506 512q0 -18 4 -68l108 199q14 25 -6 43q-12 4 -18 4q-88 0 -88 -178zM555 389q-23 -31 12 -47q2 -2 6 -2q2 0 2 -2q2 0 8.5 -1t10.5 -1q88 0 88 176q0 41 -6 86z " />
<glyph unicode="&#x1f54e;" horiz-adv-x="1187" d="M102 512q0 205 144.5 348.5t347.5 143.5q205 0 348 -143.5t143 -348.5q0 -203 -143 -347.5t-348 -144.5q-203 0 -347.5 144.5t-144.5 347.5zM193 512q0 -166 117.5 -283.5t283.5 -117.5t283.5 117.5t117.5 283.5q0 168 -117.5 284.5t-283.5 116.5t-283.5 -116.5 t-117.5 -284.5zM367 399v361q0 12 6 18q4 6 18 10h271q10 0 18 -8t8 -20v-107h107q12 0 20 -8t8 -18v-363q0 -10 -8 -18t-20 -8h-267q-12 0 -20 8t-8 18v107h-107q-10 0 -18 8t-8 20zM420 426h80v201q0 10 8 18q4 4 16 8h111v80h-215v-307zM553 291h215v309h-215v-309z" />
<glyph unicode="&#x1f54f;" horiz-adv-x="1187" d="M102 512q0 205 144.5 348.5t347.5 143.5q205 0 348 -143.5t143 -348.5q0 -203 -143 -347.5t-348 -144.5q-203 0 -347.5 144.5t-144.5 347.5zM193 512q0 -166 117.5 -283.5t283.5 -117.5t283.5 117.5t117.5 283.5q0 168 -117.5 284.5t-283.5 116.5t-283.5 -116.5 t-117.5 -284.5zM266 418v125l119 49l-2 2v139l133 58l301 -125v-121l98 -41l11 -4v-140l-11 -4l-118 -51l-4 -2l-7 2l-258 107l-8 4l-127 -54zM549 436l225 -94v2l2 -2v88h-2v2l-225 92v-88zM719 487l72 -30l79 32l-73 31zM807 344l88 37v86l-88 -37v-86z" />
<glyph unicode="&#x1f554;" horiz-adv-x="1146" d="M102 512q0 195 138.5 333t333 138t332.5 -138t138 -333t-138 -333t-332.5 -138t-333 138t-138.5 333zM205 512q0 -152 108 -260.5t260 -108.5q154 0 261.5 108.5t107.5 260.5q0 154 -107.5 261.5t-261.5 107.5q-152 0 -260 -107.5t-108 -261.5zM539 498v280h71v-250 l154 -153l-51 -51z" />
<glyph unicode="&#x1f568;" horiz-adv-x="860" d="M102 870q0 51 36 87t87 36t87 -35.5t36 -87.5q0 -78 -74 -112v-117q0 -80 80 -80h168q31 74 113 74q51 0 87 -36t36 -87t-36 -87t-87 -36q-82 0 -113 76h-168q-43 0 -80 16v-198q0 -80 80 -80h168q31 73 113 73q51 0 87 -35.5t36 -87t-36 -87t-87 -35.5q-82 0 -113 75 h-168q-90 0 -134 55.5t-44 121.5v475q-74 35 -74 112zM154 870q0 -29 21.5 -49t50 -20t50 20.5t21.5 48.5q0 31 -21.5 51.5t-50 20.5t-50 -20.5t-21.5 -51.5zM563 154q0 -29 21.5 -49.5t50.5 -20.5t50.5 20.5t21.5 49.5q0 31 -21.5 51t-50.5 20t-50.5 -20.5t-21.5 -50.5z M563 512q0 -29 21.5 -49.5t50.5 -20.5t50.5 20.5t21.5 49.5q0 31 -21.5 51.5t-50.5 20.5t-50.5 -20.5t-21.5 -51.5z" />
<glyph unicode="&#x1f569;" horiz-adv-x="860" d="M102 205q0 80 74 114v388q-74 35 -74 112q0 51 36 87t87 36t87 -36t36 -87q0 -78 -74 -112v-209q41 31 142 61q59 18 85.5 29.5t52.5 42.5t30 78q-72 33 -72 110q0 51 36 87t87 36t87 -36t36 -87q0 -82 -76 -112q-6 -59 -28.5 -103.5t-62.5 -71t-69.5 -39t-77.5 -26.5 q-43 -14 -64.5 -22.5t-48 -25t-38.5 -41t-17 -61.5q72 -31 72 -112q0 -51 -36 -87t-87 -36t-87 36t-36 87zM156 205q0 -29 20.5 -49.5t49 -20.5t50 20.5t21.5 49.5q0 31 -21.5 51t-50 20t-49 -20t-20.5 -51zM156 819q0 -29 20.5 -49t49 -20t50 20.5t21.5 48.5 q0 31 -21.5 51.5t-50 20.5t-49 -20.5t-20.5 -51.5zM565 819q0 -29 20.5 -49t49.5 -20t50.5 20.5t21.5 48.5q0 31 -21.5 51.5t-50.5 20.5t-49.5 -20.5t-20.5 -51.5z" />
<glyph unicode="&#x1f56a;" horiz-adv-x="1167" d="M102 154q0 80 74 114v117q0 66 44 121t134 55h103q78 0 78 53v144q-74 35 -74 112q0 51 35.5 87t87 36t87.5 -35.5t36 -87.5q0 -78 -74 -112v-144q0 -53 80 -53h102q88 0 132 -55t44 -121v-117q74 -35 74 -114q0 -51 -36 -87t-87 -36t-87 35.5t-36 87.5q0 80 74 114v117 q0 80 -78 80h-102q-45 0 -80 12v-209q74 -35 74 -114q0 -51 -36 -87t-87.5 -36t-87 35.5t-35.5 87.5q0 80 74 114v209q-31 -12 -78 -12h-103q-35 0 -54 -19.5t-22.5 -34t-3.5 -26.5v-117q74 -35 74 -114q0 -51 -36 -87t-87 -36t-87 35.5t-36 87.5zM156 154q0 -29 20.5 -49.5 t49 -20.5t50 20.5t21.5 49.5q0 31 -21.5 51t-50 20t-49 -20.5t-20.5 -50.5zM514 154q0 -29 20.5 -49.5t49 -20.5t50 20.5t21.5 49.5q0 31 -21.5 51t-50 20t-49 -20.5t-20.5 -50.5zM514 870q0 -29 20.5 -49t49 -20t50 20.5t21.5 48.5q0 31 -21.5 51.5t-50 20.5t-49 -20.5 t-20.5 -51.5zM872 154q0 -29 20.5 -49.5t49.5 -20.5t50.5 20.5t21.5 49.5q0 31 -21.5 51t-50.5 20t-49.5 -20.5t-20.5 -50.5z" />
<glyph unicode="&#x1f56b;" horiz-adv-x="450" d="M102 205q0 80 74 114v388q-74 35 -74 112q0 51 36 87t87 36t87 -36t36 -87q0 -78 -74 -112v-388q74 -35 74 -114q0 -51 -36 -87t-87 -36t-87 36t-36 87zM156 205q0 -29 20.5 -49.5t49 -20.5t50 20.5t21.5 49.5q0 31 -21.5 51t-50 20t-49 -20t-20.5 -51zM156 819 q0 -29 20.5 -49t49 -20t50 20.5t21.5 48.5q0 31 -21.5 51.5t-50 20.5t-49 -20.5t-20.5 -51.5z" />
<glyph unicode="&#x1f56c;" horiz-adv-x="860" d="M102 205q0 80 74 114v388q-74 35 -74 112q0 51 36 87t87 36t87 -36t36 -87q0 -78 -74 -112v-388q74 -35 74 -114q0 -51 -36 -87t-87 -36t-87 36t-36 87zM156 205q0 -29 20.5 -49.5t49 -20.5t50 20.5t21.5 49.5q0 31 -21.5 51t-50 20t-49 -20t-20.5 -51zM156 819 q0 -29 20.5 -49t49 -20t50 20.5t21.5 48.5q0 31 -21.5 51.5t-50 20.5t-49 -20.5t-20.5 -51.5zM512 205q0 80 74 114v388q-74 35 -74 112q0 51 36 87t87 36t87 -36t36 -87q0 -78 -74 -112v-388q74 -35 74 -114q0 -51 -36 -87t-87 -36t-87 36t-36 87zM565 205 q0 -29 20.5 -49.5t49.5 -20.5t50.5 20.5t21.5 49.5q0 31 -21.5 51t-50.5 20t-49.5 -20t-20.5 -51zM565 819q0 -29 20.5 -49t49.5 -20t50.5 20.5t21.5 48.5q0 31 -21.5 51.5t-50.5 20.5t-49.5 -20.5t-20.5 -51.5z" />
<glyph unicode="&#x1f5f9;" horiz-adv-x="948" d="M102 500l191 331l125 -71q68 -41 94 -103l211 367l59 -35l-110 -190l65 -37q78 -45 100.5 -122t-20.5 -146q-49 -91 -155 -95q49 -92 -5 -184q-43 -72 -117.5 -90.5t-154.5 27.5l-66 36l-110 -188l-57 33l210 366q-70 -10 -137 29zM190 518l66 -37q53 -31 102.5 -17.5 t78 62.5t15 100.5t-64.5 80.5l-65 38zM350 242l66 -37q53 -31 102 -17.5t78 62.5t14.5 99t-65.5 81l-64 37l-4 -4zM512 520l63 -37q53 -31 102.5 -17.5t78 63t15.5 99.5t-64 81l-66 39l-127 -222q0 -2 -2 -6z" />
<glyph unicode="&#x1f5fa;" horiz-adv-x="1126" d="M102 512q0 281 90 371t371 90q283 0 372 -90t89 -371q0 -283 -89 -372t-372 -89q-281 0 -371 89t-90 372z" />
<glyph unicode="&#x1f680;" horiz-adv-x="1087" d="M109 387q12 31 31.5 81t27.5 66.5t22.5 46t25.5 37t29.5 20.5t42 13h53.5t73 -6q10 14 29.5 40t79 87.5t121 106.5t148.5 76.5t169 19.5q8 0 14 -6q4 -4 6 -15q10 -84 -18.5 -172t-77.5 -154.5t-100.5 -120.5t-88.5 -83l-37 -29q6 -51 8.5 -82.5t-8 -60.5t-13.5 -41 t-35.5 -32.5t-46 -27t-72 -32t-86.5 -37.5q-33 -12 -46.5 4t-3.5 45l41 113l-133 135l-108 -41q-29 -12 -44.5 2t-2.5 47zM688 755.5q0 -32.5 23 -57.5q23 -23 55.5 -22.5t54.5 22.5q23 25 23 57.5t-23 57.5q-23 23 -55.5 23t-54.5 -23q-23 -25 -23 -57.5z" />
<glyph unicode="&#x1f6ab;" horiz-adv-x="1187" d="M102 512q0 205 144.5 348.5t347.5 143.5q205 0 348 -143.5t143 -348.5q0 -203 -143 -347.5t-348 -144.5q-203 0 -347.5 144.5t-144.5 347.5zM221 512q0 -135 84 -236l526 527q-102 84 -237 84q-156 0 -264.5 -109.5t-108.5 -265.5zM330 248zM358 223q101 -84 236 -84 q156 0 265.5 109.5t109.5 263.5q0 133 -84 238zM858 778z" />
<glyph unicode="&#x1f6c6;" d="M102 154v563q0 41 31 71.5t72 30.5h51v-768h-51q-41 0 -72 30t-31 73zM328 51v768h112v107q100 47 174 47t174 -47v-107h113v-768h-573zM502 819h225v68q-53 25 -113 24q-55 0 -112 -24v-68zM973 51v768h51q43 0 72.5 -30.5t29.5 -71.5v-563q0 -43 -29.5 -73t-72.5 -30 h-51z" />
<glyph unicode="&#x1f6c7;" d="M102 276q0 231 148.5 391t363.5 160q74 0 138 -18l-72 -88q-41 4 -66 4q-172 0 -290.5 -130t-118.5 -319q0 -31 2 -47q2 -23 -12.5 -38t-35 -17t-37 12.5t-18.5 34.5q0 8 -1 26.5t-1 28.5zM518 336q35 57 219.5 290.5t198.5 225.5q12 -6 -98.5 -284.5t-141.5 -334.5 q-51 -88 -139 -36.5t-39 139.5zM942 551q6 14 20.5 52.5t22.5 58.5q141 -158 141 -386q0 -39 -2 -57q-2 -20 -16 -33.5t-35 -13.5h-4q-23 4 -36 20.5t-11 36.5q2 14 2 47q0 154 -82 275z" />
<glyph unicode="&#x1f6c8;" horiz-adv-x="1191" d="M104 311q2 27 43 43l193 78l-23 -61q0 -49 82 -84t197 -35t196.5 35t84.5 84l-23 61l193 -78q41 -16 42 -41.5t-38 -48.5l-361 -192q-39 -23 -93 -23t-93 23l-363 192q-39 20 -37 47zM365 500q45 127 57 162q10 -29 60 -47.5t114 -18.5q66 0 115 18.5t59 47.5 q12 -35 57 -162q-4 -39 -71.5 -66.5t-159.5 -27.5t-159.5 27.5t-71.5 66.5zM469 793l53 145q10 35 73.5 35t76.5 -35q12 -39 51 -145q-29 -45 -127 -45t-127 45z" />
</font>
</defs>
</svg>
