<?xml version="1.0" encoding="utf-8"?>
<!-- Generator: Adobe Illustrator 16.0.0, SVG Export Plug-In . SVG Version: 6.00 Build 0)  -->
<!DOCTYPE svg PUBLIC "-//W3C//DTD SVG 1.1//EN" "http://www.w3.org/Graphics/SVG/1.1/DTD/svg11.dtd">
<svg version="1.1" id="Layer_1" xmlns="http://www.w3.org/2000/svg" xmlns:xlink="http://www.w3.org/1999/xlink" x="0px" y="0px"
	 width="60px" height="60px" viewBox="0 0 60 60" enable-background="new 0 0 60 60" xml:space="preserve">
<g>
	<path fill-rule="evenodd" clip-rule="evenodd" fill="#3B97D3" d="M30,1C13.434,1,0,14.431,0,31c0,13.256,8.596,24.5,20.516,28.467
		c1.499,0.277,2.05-0.65,2.05-1.443c0-0.715-0.027-3.078-0.041-5.586c-8.346,1.816-10.106-3.539-10.106-3.539
		c-1.365-3.467-3.331-4.389-3.331-4.389c-2.723-1.863,0.205-1.824,0.205-1.824c3.013,0.211,4.599,3.092,4.599,3.092
		c2.676,4.586,7.019,3.26,8.73,2.494c0.27-1.939,1.046-3.264,1.904-4.012c-6.663-0.758-13.668-3.332-13.668-14.827
		c0-3.275,1.172-5.952,3.091-8.052c-0.312-0.756-1.338-3.807,0.291-7.939c0,0,2.52-0.806,8.252,3.076
		c2.393-0.665,4.959-0.999,7.509-1.01c2.549,0.012,5.117,0.345,7.516,1.01c5.725-3.882,8.24-3.076,8.24-3.076
		c1.633,4.132,0.607,7.184,0.295,7.939c1.924,2.101,3.088,4.777,3.088,8.052c0,11.522-7.018,14.059-13.699,14.803
		c1.076,0.93,2.035,2.756,2.035,5.555c0,4.014-0.035,7.244-0.035,8.232c0,0.799,0.541,1.734,2.061,1.439
		C51.414,55.492,60,44.25,60,31C60,14.431,46.568,1,30,1z"/>
	<path fill="#3B97D3" d="M11.362,44.074c-0.065,0.148-0.301,0.193-0.514,0.092c-0.218-0.1-0.34-0.303-0.27-0.451
		c0.064-0.154,0.3-0.197,0.517-0.094C11.313,43.719,11.438,43.924,11.362,44.074L11.362,44.074z M10.993,43.801"/>
	<path fill="#3B97D3" d="M12.578,45.43c-0.144,0.131-0.423,0.07-0.613-0.139c-0.196-0.209-0.232-0.49-0.088-0.625
		c0.147-0.131,0.419-0.07,0.615,0.139C12.689,45.018,12.728,45.295,12.578,45.43L12.578,45.43z M12.292,45.121"/>
	<path fill="#3B97D3" d="M13.761,47.156c-0.184,0.129-0.484,0.008-0.671-0.258c-0.184-0.268-0.184-0.588,0.005-0.715
		c0.186-0.129,0.482-0.014,0.67,0.252C13.948,46.705,13.948,47.025,13.761,47.156L13.761,47.156z M13.761,47.156"/>
	<path fill="#3B97D3" d="M15.381,48.826c-0.164,0.182-0.515,0.133-0.771-0.115c-0.263-0.242-0.335-0.586-0.171-0.766
		c0.167-0.182,0.52-0.131,0.777,0.113C15.478,48.301,15.557,48.646,15.381,48.826L15.381,48.826z M15.381,48.826"/>
	<path fill="#3B97D3" d="M17.616,49.795c-0.072,0.234-0.409,0.342-0.749,0.242c-0.34-0.104-0.562-0.379-0.493-0.615
		c0.07-0.236,0.409-0.348,0.752-0.242C17.465,49.283,17.687,49.557,17.616,49.795L17.616,49.795z M17.616,49.795"/>
	<path fill="#3B97D3" d="M20.072,49.975c0.008,0.248-0.28,0.453-0.637,0.457c-0.358,0.008-0.649-0.191-0.653-0.436
		c0-0.25,0.282-0.453,0.641-0.459C19.779,49.531,20.072,49.729,20.072,49.975L20.072,49.975z M20.072,49.975"/>
	<path fill="#3B97D3" d="M22.356,49.586c0.043,0.242-0.205,0.49-0.56,0.555c-0.348,0.064-0.67-0.084-0.715-0.324
		c-0.043-0.248,0.209-0.494,0.557-0.559C21.994,49.195,22.312,49.34,22.356,49.586L22.356,49.586z M22.356,49.586"/>
</g>
</svg>
