<svg xmlns="http://www.w3.org/2000/svg" width="60" height="60" viewBox="0 0 60 60"><g fill="#3B97D3"><path fill-rule="evenodd" clip-rule="evenodd" d="M30 1C13.434 1 0 14.43 0 31c0 13.256 8.596 24.5 20.516 28.467 1.5.277 2.05-.65 2.05-1.443 0-.715-.027-3.078-.04-5.586-8.347 1.816-10.107-3.54-10.107-3.54-1.366-3.466-3.332-4.388-3.332-4.388-2.723-1.863.205-1.824.205-1.824 3.013.21 4.6 3.092 4.6 3.092 2.675 4.586 7.018 3.26 8.73 2.494.27-1.94 1.045-3.264 1.903-4.012-6.663-.758-13.668-3.332-13.668-14.827 0-3.275 1.172-5.952 3.09-8.052-.31-.755-1.337-3.806.292-7.938 0 0 2.52-.806 8.252 3.076 2.393-.665 4.96-1 7.51-1.01 2.548.012 5.116.345 7.515 1.01 5.725-3.882 8.24-3.076 8.24-3.076 1.633 4.132.607 7.184.295 7.94 1.924 2.1 3.088 4.776 3.088 8.05 0 11.523-7.018 14.06-13.7 14.804 1.077.93 2.036 2.756 2.036 5.555 0 4.015-.035 7.245-.035 8.233 0 .8.542 1.734 2.062 1.44C51.414 55.492 60 44.25 60 31 60 14.43 46.568 1 30 1z"/><path d="M11.362 44.074c-.065.148-.3.193-.514.092-.218-.1-.34-.303-.27-.45.064-.155.3-.198.517-.095.218.1.343.304.267.454zm-.37-.273M12.578 45.43c-.144.13-.423.07-.613-.14-.196-.208-.232-.49-.088-.624.147-.13.42-.07.615.14.197.212.236.49.086.624zm-.286-.31M13.76 47.156c-.183.13-.483.008-.67-.258-.184-.268-.184-.588.005-.715.186-.13.482-.014.67.252.183.27.183.59-.004.72zm0 0M15.38 48.826c-.163.182-.514.133-.77-.115-.263-.24-.335-.585-.17-.765.166-.182.52-.13.776.113.262.243.34.588.165.768zm0 0M17.616 49.795c-.072.234-.41.342-.75.242-.34-.104-.56-.38-.492-.615.07-.236.41-.348.752-.242.34.103.56.377.49.615zm0 0M20.072 49.975c.008.248-.28.453-.637.457-.358.008-.65-.19-.653-.436 0-.25.282-.453.64-.46.357-.005.65.193.65.44zm0 0M22.356 49.586c.043.242-.205.49-.56.555-.348.065-.67-.083-.715-.323-.042-.248.21-.494.558-.56.356-.062.674.083.718.33zm0 0"/></g></svg>