<svg xmlns="http://www.w3.org/2000/svg" width="60" height="60" viewBox="0 0 60 60"><g fill="#3B97D3"><path fill-rule="evenodd" clip-rule="evenodd" d="M30 1C13.434 1 0 14.431 0 31c0 13.256 8.596 24.5 20.516 28.467 1.499.277 2.05-.65 2.05-1.443 0-.715-.027-3.078-.041-5.586-8.346 1.816-10.106-3.539-10.106-3.539-1.365-3.467-3.331-4.389-3.331-4.389-2.723-1.863.205-1.824.205-1.824 3.013.211 4.599 3.092 4.599 3.092 2.676 4.586 7.019 3.26 8.73 2.494.27-1.939 1.046-3.264 1.904-4.012-6.663-.758-13.668-3.332-13.668-14.827 0-3.275 1.172-5.952 3.091-8.052-.312-.756-1.338-3.807.291-7.939 0 0 2.52-.806 8.252 3.076 2.393-.665 4.959-.999 7.509-1.01 2.549.012 5.117.345 7.516 1.01 5.725-3.882 8.24-3.076 8.24-3.076 1.633 4.132.607 7.184.295 7.939 1.924 2.101 3.088 4.777 3.088 8.052 0 11.522-7.018 14.059-13.699 14.803 1.076.93 2.035 2.756 2.035 5.555 0 4.014-.035 7.244-.035 8.232 0 .799.541 1.734 2.061 1.439C51.414 55.492 60 44.25 60 31 60 14.431 46.568 1 30 1z"/><path d="M11.362 44.074c-.065.148-.301.193-.514.092-.218-.1-.34-.303-.27-.451.064-.154.3-.197.517-.094.218.098.343.303.267.453zm1.216 1.356c-.144.131-.423.07-.613-.139-.196-.209-.232-.49-.088-.625.147-.131.419-.07.615.139.197.213.236.49.086.625zm1.183 1.726c-.184.129-.484.008-.671-.258-.184-.268-.184-.588.005-.715.186-.129.482-.014.67.252.183.27.183.59-.004.721zm1.62 1.67c-.164.182-.515.133-.771-.115-.263-.242-.335-.586-.171-.766.167-.182.52-.131.777.113.262.243.341.588.165.768zm2.235.969c-.072.234-.409.342-.749.242-.34-.104-.562-.379-.493-.615.07-.236.409-.348.752-.242.339.103.561.377.49.615zm2.456.18c.008.248-.28.453-.637.457-.358.008-.649-.191-.653-.436 0-.25.282-.453.641-.459.356-.006.649.192.649.438zm2.284-.389c.043.242-.205.49-.56.555-.348.064-.67-.084-.715-.324-.043-.248.209-.494.557-.559.356-.063.674.082.718.328zm0 0"/></g></svg>